<svg width="154" height="54" viewBox="0 0 154 54" fill="none" xmlns="http://www.w3.org/2000/svg">
<rect width="154" height="54" rx="16" fill="#1A1A1A"/>
<path d="M62.3418 40.2334V41H58.5771V40.2334H62.3418ZM58.7676 33.8906V41H57.8252V33.8906H58.7676ZM61.8438 36.9473V37.7139H58.5771V36.9473H61.8438ZM62.293 33.8906V34.6621H58.5771V33.8906H62.293ZM66.4482 39.5986C66.4482 39.4684 66.4189 39.348 66.3604 39.2373C66.305 39.1234 66.1895 39.0208 66.0137 38.9297C65.8411 38.8353 65.5807 38.7539 65.2324 38.6855C64.9395 38.6237 64.6742 38.5505 64.4365 38.4658C64.2021 38.3812 64.002 38.2786 63.8359 38.1582C63.6732 38.0378 63.5479 37.8962 63.46 37.7334C63.3721 37.5706 63.3281 37.3802 63.3281 37.1621C63.3281 36.9538 63.3737 36.7568 63.4648 36.5713C63.5592 36.3857 63.6911 36.2214 63.8604 36.0781C64.0329 35.9349 64.2396 35.8226 64.4805 35.7412C64.7214 35.6598 64.9899 35.6191 65.2861 35.6191C65.7093 35.6191 66.0706 35.694 66.3701 35.8438C66.6696 35.9935 66.8991 36.1937 67.0586 36.4443C67.2181 36.6917 67.2979 36.9668 67.2979 37.2695H66.3945C66.3945 37.123 66.3506 36.9814 66.2627 36.8447C66.1781 36.7048 66.0527 36.5892 65.8867 36.498C65.724 36.4069 65.5238 36.3613 65.2861 36.3613C65.0355 36.3613 64.832 36.4004 64.6758 36.4785C64.5228 36.5534 64.4105 36.6494 64.3389 36.7666C64.2705 36.8838 64.2363 37.0075 64.2363 37.1377C64.2363 37.2354 64.2526 37.3232 64.2852 37.4014C64.321 37.4762 64.3828 37.5462 64.4707 37.6113C64.5586 37.6732 64.6823 37.7318 64.8418 37.7871C65.0013 37.8424 65.2048 37.8978 65.4521 37.9531C65.8851 38.0508 66.2415 38.168 66.5215 38.3047C66.8014 38.4414 67.0098 38.609 67.1465 38.8076C67.2832 39.0062 67.3516 39.2471 67.3516 39.5303C67.3516 39.7614 67.3027 39.973 67.2051 40.165C67.1107 40.3571 66.9723 40.5231 66.79 40.6631C66.611 40.7998 66.3962 40.9072 66.1455 40.9854C65.8981 41.0602 65.6198 41.0977 65.3105 41.0977C64.8451 41.0977 64.4512 41.0146 64.1289 40.8486C63.8066 40.6826 63.5625 40.4678 63.3965 40.2041C63.2305 39.9404 63.1475 39.6621 63.1475 39.3691H64.0557C64.0687 39.6165 64.1403 39.8135 64.2705 39.96C64.4007 40.1032 64.5602 40.2057 64.749 40.2676C64.9378 40.3262 65.125 40.3555 65.3105 40.3555C65.5579 40.3555 65.7646 40.3229 65.9307 40.2578C66.0999 40.1927 66.2285 40.1032 66.3164 39.9893C66.4043 39.8753 66.4482 39.7451 66.4482 39.5986ZM70.75 35.7168V36.4102H67.8936V35.7168H70.75ZM68.8604 34.4326H69.7637V39.6914C69.7637 39.8704 69.7913 40.0055 69.8467 40.0967C69.902 40.1878 69.9736 40.248 70.0615 40.2773C70.1494 40.3066 70.2438 40.3213 70.3447 40.3213C70.4196 40.3213 70.4977 40.3148 70.5791 40.3018C70.6637 40.2855 70.7272 40.2725 70.7695 40.2627L70.7744 41C70.7028 41.0228 70.6084 41.0439 70.4912 41.0635C70.3773 41.0863 70.2389 41.0977 70.0762 41.0977C69.8548 41.0977 69.6514 41.0537 69.4658 40.9658C69.2803 40.8779 69.1322 40.7314 69.0215 40.5264C68.9141 40.318 68.8604 40.0381 68.8604 39.6865V34.4326ZM72.791 35.7168V41H71.8828V35.7168H72.791ZM71.8145 34.3154C71.8145 34.1689 71.8584 34.0452 71.9463 33.9443C72.0374 33.8434 72.1709 33.793 72.3467 33.793C72.5192 33.793 72.651 33.8434 72.7422 33.9443C72.8366 34.0452 72.8838 34.1689 72.8838 34.3154C72.8838 34.4554 72.8366 34.5758 72.7422 34.6768C72.651 34.7744 72.5192 34.8232 72.3467 34.8232C72.1709 34.8232 72.0374 34.7744 71.9463 34.6768C71.8584 34.5758 71.8145 34.4554 71.8145 34.3154ZM75.1396 36.7666V41H74.2314V35.7168H75.0908L75.1396 36.7666ZM74.9541 38.1582L74.5342 38.1436C74.5374 37.7822 74.5846 37.4486 74.6758 37.1426C74.7669 36.8333 74.902 36.5648 75.0811 36.3369C75.2601 36.109 75.4831 35.9333 75.75 35.8096C76.0169 35.6826 76.3262 35.6191 76.6777 35.6191C76.9251 35.6191 77.153 35.6549 77.3613 35.7266C77.5697 35.7949 77.7503 35.904 77.9033 36.0537C78.0563 36.2035 78.1751 36.3955 78.2598 36.6299C78.3444 36.8643 78.3867 37.1475 78.3867 37.4795V41H77.4834V37.5234C77.4834 37.2467 77.4362 37.0254 77.3418 36.8594C77.2507 36.6934 77.1204 36.5729 76.9512 36.498C76.7819 36.4199 76.5833 36.3809 76.3555 36.3809C76.0885 36.3809 75.8656 36.4281 75.6865 36.5225C75.5075 36.6169 75.3643 36.7471 75.2568 36.9131C75.1494 37.0791 75.0713 37.2695 75.0225 37.4844C74.9769 37.696 74.9541 37.9206 74.9541 38.1582ZM78.377 37.6602L77.7715 37.8457C77.7747 37.556 77.8219 37.2777 77.9131 37.0107C78.0075 36.7438 78.1426 36.5062 78.3184 36.2979C78.4974 36.0895 78.7171 35.9251 78.9775 35.8047C79.238 35.681 79.5358 35.6191 79.8711 35.6191C80.1543 35.6191 80.4049 35.6566 80.623 35.7314C80.8444 35.8063 81.0299 35.9219 81.1797 36.0781C81.3327 36.2311 81.4482 36.4281 81.5264 36.6689C81.6045 36.9098 81.6436 37.1963 81.6436 37.5283V41H80.7354V37.5186C80.7354 37.2223 80.6882 36.9928 80.5938 36.8301C80.5026 36.6641 80.3724 36.5485 80.2031 36.4834C80.0371 36.415 79.8385 36.3809 79.6074 36.3809C79.4089 36.3809 79.2331 36.415 79.0801 36.4834C78.9271 36.5518 78.7985 36.6462 78.6943 36.7666C78.5902 36.8838 78.5104 37.0189 78.4551 37.1719C78.403 37.3249 78.377 37.4876 78.377 37.6602ZM86.126 40.0967V37.377C86.126 37.1686 86.0837 36.988 85.999 36.835C85.9176 36.6787 85.7939 36.5583 85.6279 36.4736C85.4619 36.389 85.2568 36.3467 85.0127 36.3467C84.7848 36.3467 84.5846 36.3857 84.4121 36.4639C84.2428 36.542 84.1094 36.6445 84.0117 36.7715C83.9173 36.8984 83.8701 37.0352 83.8701 37.1816H82.9668C82.9668 36.9928 83.0156 36.8057 83.1133 36.6201C83.2109 36.4346 83.3509 36.2669 83.5332 36.1172C83.7188 35.9642 83.9401 35.8438 84.1973 35.7559C84.4577 35.6647 84.7474 35.6191 85.0664 35.6191C85.4505 35.6191 85.7891 35.6842 86.082 35.8145C86.3783 35.9447 86.6094 36.1416 86.7754 36.4053C86.9447 36.6657 87.0293 36.9928 87.0293 37.3867V39.8477C87.0293 40.0234 87.0439 40.2106 87.0732 40.4092C87.1058 40.6077 87.153 40.7786 87.2148 40.9219V41H86.2725C86.2269 40.8958 86.1911 40.7575 86.165 40.585C86.139 40.4092 86.126 40.2464 86.126 40.0967ZM86.2822 37.7969L86.292 38.4316H85.3789C85.1217 38.4316 84.8923 38.4528 84.6904 38.4951C84.4886 38.5342 84.3193 38.5944 84.1826 38.6758C84.0459 38.7572 83.9417 38.8597 83.8701 38.9834C83.7985 39.1038 83.7627 39.2454 83.7627 39.4082C83.7627 39.5742 83.8001 39.7256 83.875 39.8623C83.9499 39.999 84.0622 40.1081 84.2119 40.1895C84.3649 40.2676 84.5521 40.3066 84.7734 40.3066C85.0501 40.3066 85.2943 40.248 85.5059 40.1309C85.7174 40.0137 85.8851 39.8704 86.0088 39.7012C86.1357 39.5319 86.2041 39.3675 86.2139 39.208L86.5996 39.6426C86.5768 39.7793 86.515 39.9307 86.4141 40.0967C86.3132 40.2627 86.1781 40.4222 86.0088 40.5752C85.8428 40.7249 85.6442 40.8503 85.4131 40.9512C85.1852 41.0488 84.9281 41.0977 84.6416 41.0977C84.2835 41.0977 83.9694 41.0277 83.6992 40.8877C83.4323 40.7477 83.224 40.5605 83.0742 40.3262C82.9277 40.0885 82.8545 39.8232 82.8545 39.5303C82.8545 39.2471 82.9098 38.998 83.0205 38.7832C83.1312 38.5651 83.2907 38.3844 83.499 38.2412C83.7074 38.0947 83.958 37.984 84.251 37.9092C84.5439 37.8343 84.8711 37.7969 85.2324 37.7969H86.2822ZM90.6621 35.7168V36.4102H87.8057V35.7168H90.6621ZM88.7725 34.4326H89.6758V39.6914C89.6758 39.8704 89.7035 40.0055 89.7588 40.0967C89.8141 40.1878 89.8857 40.248 89.9736 40.2773C90.0615 40.3066 90.1559 40.3213 90.2568 40.3213C90.3317 40.3213 90.4098 40.3148 90.4912 40.3018C90.5758 40.2855 90.6393 40.2725 90.6816 40.2627L90.6865 41C90.6149 41.0228 90.5205 41.0439 90.4033 41.0635C90.2894 41.0863 90.151 41.0977 89.9883 41.0977C89.7669 41.0977 89.5635 41.0537 89.3779 40.9658C89.1924 40.8779 89.0443 40.7314 88.9336 40.5264C88.8262 40.318 88.7725 40.0381 88.7725 39.6865V34.4326ZM93.9141 41.0977C93.5462 41.0977 93.2126 41.0358 92.9131 40.9121C92.6169 40.7852 92.3613 40.6077 92.1465 40.3799C91.9349 40.152 91.7721 39.8818 91.6582 39.5693C91.5443 39.2568 91.4873 38.915 91.4873 38.5439V38.3389C91.4873 37.9092 91.5508 37.5267 91.6777 37.1914C91.8047 36.8529 91.9772 36.5664 92.1953 36.332C92.4134 36.0977 92.6608 35.9202 92.9375 35.7998C93.2142 35.6794 93.5007 35.6191 93.7969 35.6191C94.1745 35.6191 94.5 35.6842 94.7734 35.8145C95.0501 35.9447 95.2764 36.127 95.4521 36.3613C95.6279 36.5924 95.7581 36.8659 95.8428 37.1816C95.9274 37.4941 95.9697 37.8359 95.9697 38.207V38.6123H92.0244V37.875H95.0664V37.8066C95.0534 37.5723 95.0046 37.3444 94.9199 37.123C94.8385 36.9017 94.7083 36.7194 94.5293 36.5762C94.3503 36.4329 94.1061 36.3613 93.7969 36.3613C93.5918 36.3613 93.403 36.4053 93.2305 36.4932C93.0579 36.5778 92.9098 36.7048 92.7861 36.874C92.6624 37.0433 92.5664 37.25 92.498 37.4941C92.4297 37.7383 92.3955 38.0199 92.3955 38.3389V38.5439C92.3955 38.7946 92.4297 39.0306 92.498 39.252C92.5697 39.4701 92.6722 39.6621 92.8057 39.8281C92.9424 39.9941 93.1068 40.1243 93.2988 40.2188C93.4941 40.3132 93.7155 40.3604 93.9629 40.3604C94.2819 40.3604 94.5521 40.2952 94.7734 40.165C94.9948 40.0348 95.1885 39.8607 95.3545 39.6426L95.9014 40.0771C95.7874 40.2497 95.6426 40.4141 95.4668 40.5703C95.291 40.7266 95.0745 40.8535 94.8174 40.9512C94.5635 41.0488 94.2624 41.0977 93.9141 41.0977ZM100.354 39.9746V33.5H101.263V41H100.433L100.354 39.9746ZM96.7998 38.417V38.3145C96.7998 37.9108 96.8486 37.5446 96.9463 37.2158C97.0472 36.8838 97.1888 36.599 97.3711 36.3613C97.5566 36.1237 97.7764 35.9414 98.0303 35.8145C98.2874 35.6842 98.5739 35.6191 98.8896 35.6191C99.2217 35.6191 99.5114 35.6777 99.7588 35.7949C100.009 35.9089 100.221 36.0765 100.394 36.2979C100.569 36.516 100.708 36.7796 100.809 37.0889C100.91 37.3981 100.979 37.748 101.019 38.1387V38.5879C100.983 38.9753 100.913 39.3236 100.809 39.6328C100.708 39.9421 100.569 40.2057 100.394 40.4238C100.221 40.6419 100.009 40.8096 99.7588 40.9268C99.5081 41.0407 99.2152 41.0977 98.8799 41.0977C98.5706 41.0977 98.2874 41.0309 98.0303 40.8975C97.7764 40.764 97.5566 40.5768 97.3711 40.3359C97.1888 40.0951 97.0472 39.8118 96.9463 39.4863C96.8486 39.1576 96.7998 38.8011 96.7998 38.417ZM97.708 38.3145V38.417C97.708 38.6807 97.734 38.9281 97.7861 39.1592C97.8415 39.3903 97.9261 39.5938 98.04 39.7695C98.154 39.9453 98.2988 40.0837 98.4746 40.1846C98.6504 40.2822 98.8604 40.3311 99.1045 40.3311C99.404 40.3311 99.6497 40.2676 99.8418 40.1406C100.037 40.0137 100.193 39.846 100.311 39.6377C100.428 39.4294 100.519 39.2031 100.584 38.959V37.7822C100.545 37.6032 100.488 37.4307 100.413 37.2646C100.341 37.0954 100.247 36.9456 100.13 36.8154C100.016 36.682 99.8743 36.5762 99.7051 36.498C99.5391 36.4199 99.3421 36.3809 99.1143 36.3809C98.8669 36.3809 98.6536 36.4329 98.4746 36.5371C98.2988 36.638 98.154 36.778 98.04 36.957C97.9261 37.1328 97.8415 37.3379 97.7861 37.5723C97.734 37.8034 97.708 38.0508 97.708 38.3145ZM107.82 37.6748H106.019L106.009 36.918H107.645C107.915 36.918 108.151 36.8724 108.353 36.7812C108.554 36.6901 108.711 36.5599 108.821 36.3906C108.935 36.2181 108.992 36.013 108.992 35.7754C108.992 35.515 108.942 35.3034 108.841 35.1406C108.743 34.9746 108.592 34.8542 108.387 34.7793C108.185 34.7012 107.928 34.6621 107.615 34.6621H106.229V41H105.286V33.8906H107.615C107.98 33.8906 108.305 33.9281 108.592 34.0029C108.878 34.0745 109.121 34.1885 109.319 34.3447C109.521 34.4977 109.674 34.693 109.778 34.9307C109.882 35.1683 109.935 35.4531 109.935 35.7852C109.935 36.0781 109.86 36.3434 109.71 36.5811C109.56 36.8154 109.352 37.0075 109.085 37.1572C108.821 37.307 108.512 37.403 108.157 37.4453L107.82 37.6748ZM107.776 41H105.647L106.18 40.2334H107.776C108.076 40.2334 108.33 40.1813 108.538 40.0771C108.75 39.973 108.911 39.8265 109.021 39.6377C109.132 39.4456 109.188 39.2194 109.188 38.959C109.188 38.6953 109.14 38.4674 109.046 38.2754C108.951 38.0833 108.803 37.9352 108.602 37.8311C108.4 37.7269 108.139 37.6748 107.82 37.6748H106.478L106.487 36.918H108.323L108.523 37.1914C108.865 37.2207 109.155 37.3184 109.393 37.4844C109.63 37.6471 109.811 37.8555 109.935 38.1094C110.062 38.3633 110.125 38.6432 110.125 38.9492C110.125 39.3919 110.027 39.7663 109.832 40.0723C109.64 40.375 109.368 40.6061 109.017 40.7656C108.665 40.9219 108.252 41 107.776 41ZM114.495 40.0967V37.377C114.495 37.1686 114.453 36.988 114.368 36.835C114.287 36.6787 114.163 36.5583 113.997 36.4736C113.831 36.389 113.626 36.3467 113.382 36.3467C113.154 36.3467 112.954 36.3857 112.781 36.4639C112.612 36.542 112.479 36.6445 112.381 36.7715C112.286 36.8984 112.239 37.0352 112.239 37.1816H111.336C111.336 36.9928 111.385 36.8057 111.482 36.6201C111.58 36.4346 111.72 36.2669 111.902 36.1172C112.088 35.9642 112.309 35.8438 112.566 35.7559C112.827 35.6647 113.117 35.6191 113.436 35.6191C113.82 35.6191 114.158 35.6842 114.451 35.8145C114.747 35.9447 114.979 36.1416 115.145 36.4053C115.314 36.6657 115.398 36.9928 115.398 37.3867V39.8477C115.398 40.0234 115.413 40.2106 115.442 40.4092C115.475 40.6077 115.522 40.7786 115.584 40.9219V41H114.642C114.596 40.8958 114.56 40.7575 114.534 40.585C114.508 40.4092 114.495 40.2464 114.495 40.0967ZM114.651 37.7969L114.661 38.4316H113.748C113.491 38.4316 113.261 38.4528 113.06 38.4951C112.858 38.5342 112.688 38.5944 112.552 38.6758C112.415 38.7572 112.311 38.8597 112.239 38.9834C112.168 39.1038 112.132 39.2454 112.132 39.4082C112.132 39.5742 112.169 39.7256 112.244 39.8623C112.319 39.999 112.431 40.1081 112.581 40.1895C112.734 40.2676 112.921 40.3066 113.143 40.3066C113.419 40.3066 113.663 40.248 113.875 40.1309C114.087 40.0137 114.254 39.8704 114.378 39.7012C114.505 39.5319 114.573 39.3675 114.583 39.208L114.969 39.6426C114.946 39.7793 114.884 39.9307 114.783 40.0967C114.682 40.2627 114.547 40.4222 114.378 40.5752C114.212 40.7249 114.013 40.8503 113.782 40.9512C113.554 41.0488 113.297 41.0977 113.011 41.0977C112.653 41.0977 112.339 41.0277 112.068 40.8877C111.801 40.7477 111.593 40.5605 111.443 40.3262C111.297 40.0885 111.224 39.8232 111.224 39.5303C111.224 39.2471 111.279 38.998 111.39 38.7832C111.5 38.5651 111.66 38.3844 111.868 38.2412C112.076 38.0947 112.327 37.984 112.62 37.9092C112.913 37.8343 113.24 37.7969 113.602 37.7969H114.651ZM119.031 35.7168V36.4102H116.175V35.7168H119.031ZM117.142 34.4326H118.045V39.6914C118.045 39.8704 118.073 40.0055 118.128 40.0967C118.183 40.1878 118.255 40.248 118.343 40.2773C118.431 40.3066 118.525 40.3213 118.626 40.3213C118.701 40.3213 118.779 40.3148 118.86 40.3018C118.945 40.2855 119.008 40.2725 119.051 40.2627L119.056 41C118.984 41.0228 118.89 41.0439 118.772 41.0635C118.659 41.0863 118.52 41.0977 118.357 41.0977C118.136 41.0977 117.933 41.0537 117.747 40.9658C117.562 40.8779 117.413 40.7314 117.303 40.5264C117.195 40.318 117.142 40.0381 117.142 39.6865V34.4326ZM122.303 35.7168V36.4102H119.446V35.7168H122.303ZM120.413 34.4326H121.316V39.6914C121.316 39.8704 121.344 40.0055 121.399 40.0967C121.455 40.1878 121.526 40.248 121.614 40.2773C121.702 40.3066 121.797 40.3213 121.897 40.3213C121.972 40.3213 122.05 40.3148 122.132 40.3018C122.216 40.2855 122.28 40.2725 122.322 40.2627L122.327 41C122.256 41.0228 122.161 41.0439 122.044 41.0635C121.93 41.0863 121.792 41.0977 121.629 41.0977C121.408 41.0977 121.204 41.0537 121.019 40.9658C120.833 40.8779 120.685 40.7314 120.574 40.5264C120.467 40.318 120.413 40.0381 120.413 39.6865V34.4326ZM125.555 41.0977C125.187 41.0977 124.853 41.0358 124.554 40.9121C124.257 40.7852 124.002 40.6077 123.787 40.3799C123.576 40.152 123.413 39.8818 123.299 39.5693C123.185 39.2568 123.128 38.915 123.128 38.5439V38.3389C123.128 37.9092 123.191 37.5267 123.318 37.1914C123.445 36.8529 123.618 36.5664 123.836 36.332C124.054 36.0977 124.301 35.9202 124.578 35.7998C124.855 35.6794 125.141 35.6191 125.438 35.6191C125.815 35.6191 126.141 35.6842 126.414 35.8145C126.691 35.9447 126.917 36.127 127.093 36.3613C127.269 36.5924 127.399 36.8659 127.483 37.1816C127.568 37.4941 127.61 37.8359 127.61 38.207V38.6123H123.665V37.875H126.707V37.8066C126.694 37.5723 126.645 37.3444 126.561 37.123C126.479 36.9017 126.349 36.7194 126.17 36.5762C125.991 36.4329 125.747 36.3613 125.438 36.3613C125.232 36.3613 125.044 36.4053 124.871 36.4932C124.699 36.5778 124.55 36.7048 124.427 36.874C124.303 37.0433 124.207 37.25 124.139 37.4941C124.07 37.7383 124.036 38.0199 124.036 38.3389V38.5439C124.036 38.7946 124.07 39.0306 124.139 39.252C124.21 39.4701 124.313 39.6621 124.446 39.8281C124.583 39.9941 124.747 40.1243 124.939 40.2188C125.135 40.3132 125.356 40.3604 125.604 40.3604C125.923 40.3604 126.193 40.2952 126.414 40.165C126.635 40.0348 126.829 39.8607 126.995 39.6426L127.542 40.0771C127.428 40.2497 127.283 40.4141 127.107 40.5703C126.932 40.7266 126.715 40.8535 126.458 40.9512C126.204 41.0488 125.903 41.0977 125.555 41.0977ZM129.568 36.5469V41H128.665V35.7168H129.544L129.568 36.5469ZM131.219 35.6875L131.214 36.5273C131.139 36.5111 131.067 36.5013 130.999 36.498C130.934 36.4915 130.859 36.4883 130.774 36.4883C130.566 36.4883 130.382 36.5208 130.223 36.5859C130.063 36.651 129.928 36.7422 129.817 36.8594C129.707 36.9766 129.619 37.1165 129.554 37.2793C129.492 37.4388 129.451 37.6146 129.432 37.8066L129.178 37.9531C129.178 37.6341 129.209 37.3346 129.271 37.0547C129.336 36.7747 129.435 36.5273 129.568 36.3125C129.702 36.0944 129.871 35.9251 130.076 35.8047C130.285 35.681 130.532 35.6191 130.818 35.6191C130.883 35.6191 130.958 35.6273 131.043 35.6436C131.128 35.6566 131.186 35.6712 131.219 35.6875ZM133.626 40.4531L135.096 35.7168H136.062L133.943 41.8154C133.895 41.9456 133.829 42.0856 133.748 42.2354C133.67 42.3883 133.569 42.5332 133.445 42.6699C133.322 42.8066 133.172 42.9173 132.996 43.002C132.824 43.0898 132.617 43.1338 132.376 43.1338C132.304 43.1338 132.213 43.124 132.103 43.1045C131.992 43.085 131.914 43.0687 131.868 43.0557L131.863 42.3232C131.889 42.3265 131.93 42.3298 131.985 42.333C132.044 42.3395 132.085 42.3428 132.107 42.3428C132.312 42.3428 132.487 42.3151 132.63 42.2598C132.773 42.2077 132.894 42.1182 132.991 41.9912C133.092 41.8675 133.178 41.6966 133.25 41.4785L133.626 40.4531ZM132.547 35.7168L133.919 39.8184L134.153 40.7705L133.504 41.1025L131.561 35.7168H132.547Z" fill="#76767A"/>
<path d="M65.4922 18.4766V20.6914C65.4922 21.6523 65.3896 22.4814 65.1846 23.1787C64.9795 23.8701 64.6836 24.4385 64.2969 24.8838C63.916 25.3232 63.4619 25.6484 62.9346 25.8594C62.4072 26.0703 61.8213 26.1758 61.1768 26.1758C60.6611 26.1758 60.1807 26.1113 59.7354 25.9824C59.29 25.8477 58.8887 25.6396 58.5312 25.3584C58.1797 25.0771 57.875 24.7227 57.6172 24.2949C57.3652 23.8613 57.1719 23.3457 57.0371 22.748C56.9023 22.1504 56.835 21.4648 56.835 20.6914V18.4766C56.835 17.5156 56.9375 16.6924 57.1426 16.0068C57.3535 15.3154 57.6494 14.75 58.0303 14.3105C58.417 13.8711 58.874 13.5488 59.4014 13.3438C59.9287 13.1328 60.5146 13.0273 61.1592 13.0273C61.6748 13.0273 62.1523 13.0947 62.5918 13.2295C63.0371 13.3584 63.4385 13.5605 63.7959 13.8359C64.1533 14.1113 64.458 14.4658 64.71 14.8994C64.9619 15.3271 65.1553 15.8398 65.29 16.4375C65.4248 17.0293 65.4922 17.709 65.4922 18.4766ZM62.9521 21.0254V18.1338C62.9521 17.6709 62.9258 17.2666 62.873 16.9209C62.8262 16.5752 62.7529 16.2822 62.6533 16.042C62.5537 15.7959 62.4307 15.5967 62.2842 15.4443C62.1377 15.292 61.9707 15.1807 61.7832 15.1104C61.5957 15.04 61.3877 15.0049 61.1592 15.0049C60.8721 15.0049 60.6172 15.0605 60.3945 15.1719C60.1777 15.2832 59.9932 15.4619 59.8408 15.708C59.6885 15.9482 59.5713 16.2705 59.4893 16.6748C59.4131 17.0732 59.375 17.5596 59.375 18.1338V21.0254C59.375 21.4883 59.3984 21.8955 59.4453 22.2471C59.498 22.5986 59.5742 22.9004 59.6738 23.1523C59.7793 23.3984 59.9023 23.6006 60.043 23.7588C60.1895 23.9111 60.3564 24.0225 60.5439 24.0928C60.7373 24.1631 60.9482 24.1982 61.1768 24.1982C61.458 24.1982 61.707 24.1426 61.9238 24.0312C62.1465 23.9141 62.334 23.7324 62.4863 23.4863C62.6445 23.2344 62.7617 22.9062 62.8379 22.502C62.9141 22.0977 62.9521 21.6055 62.9521 21.0254ZM75.9688 24.0225V26H67.2148V24.3125L71.3545 19.874C71.7705 19.4111 72.0986 19.0039 72.3389 18.6523C72.5791 18.2949 72.752 17.9756 72.8574 17.6943C72.9688 17.4072 73.0244 17.1348 73.0244 16.877C73.0244 16.4902 72.96 16.1592 72.8311 15.8838C72.7021 15.6025 72.5117 15.3857 72.2598 15.2334C72.0137 15.0811 71.709 15.0049 71.3457 15.0049C70.959 15.0049 70.625 15.0986 70.3438 15.2861C70.0684 15.4736 69.8574 15.7344 69.7109 16.0684C69.5703 16.4023 69.5 16.7803 69.5 17.2021H66.96C66.96 16.4404 67.1416 15.7432 67.5049 15.1104C67.8682 14.4717 68.3809 13.9648 69.043 13.5898C69.7051 13.209 70.4902 13.0186 71.3984 13.0186C72.2949 13.0186 73.0508 13.165 73.666 13.458C74.2871 13.7451 74.7559 14.1611 75.0723 14.7061C75.3945 15.2451 75.5557 15.8896 75.5557 16.6396C75.5557 17.0615 75.4883 17.4746 75.3535 17.8789C75.2188 18.2773 75.0254 18.6758 74.7734 19.0742C74.5273 19.4668 74.2285 19.8652 73.877 20.2695C73.5254 20.6738 73.1357 21.0928 72.708 21.5264L70.4844 24.0225H75.9688Z" fill="white"/>
<path d="M80.8457 18.5V26H79.5518V18.5H80.8457ZM80.6406 23.168H80.2598C80.2598 22.8001 80.3086 22.4616 80.4062 22.1523C80.5039 21.8431 80.6423 21.5745 80.8213 21.3467C81.0003 21.1156 81.2135 20.9365 81.4609 20.8096C81.7116 20.6826 81.9883 20.6191 82.291 20.6191C82.5514 20.6191 82.7874 20.6566 82.999 20.7314C83.2139 20.8031 83.3978 20.9186 83.5508 21.0781C83.7038 21.2376 83.821 21.446 83.9023 21.7031C83.987 21.957 84.0293 22.2663 84.0293 22.6309V26H82.7305V22.6211C82.7305 22.377 82.6947 22.1849 82.623 22.0449C82.5514 21.9017 82.4489 21.7992 82.3154 21.7373C82.1852 21.6755 82.0241 21.6445 81.832 21.6445C81.6237 21.6445 81.4447 21.6852 81.2949 21.7666C81.1452 21.8447 81.0215 21.9538 80.9238 22.0938C80.8294 22.2337 80.7578 22.3949 80.709 22.5771C80.6634 22.7594 80.6406 22.9564 80.6406 23.168Z" fill="white"/>
<path d="M98.8438 21.2188V23.2051H89.624L89.501 21.667L94.8359 13.2031H96.8486L94.6689 16.8506L92.0146 21.2188H98.8438ZM97.3936 13.2031V26H94.8623V13.2031H97.3936ZM109.18 21.2188V23.2051H99.96L99.8369 21.667L105.172 13.2031H107.185L105.005 16.8506L102.351 21.2188H109.18ZM107.729 13.2031V26H105.198V13.2031H107.729Z" fill="white"/>
<path d="M113.865 21.8008V26H112.576V20.7168H113.792L113.865 21.8008ZM113.675 23.168H113.279C113.279 22.8001 113.323 22.4616 113.411 22.1523C113.502 21.8431 113.636 21.5745 113.812 21.3467C113.987 21.1156 114.204 20.9365 114.461 20.8096C114.721 20.6826 115.022 20.6191 115.364 20.6191C115.602 20.6191 115.82 20.6549 116.019 20.7266C116.217 20.7949 116.388 20.904 116.531 21.0537C116.678 21.2002 116.79 21.3923 116.868 21.6299C116.946 21.8643 116.985 22.1458 116.985 22.4746V26H115.696V22.6064C115.696 22.359 115.66 22.1654 115.589 22.0254C115.521 21.8854 115.421 21.7878 115.291 21.7324C115.161 21.6738 115.005 21.6445 114.822 21.6445C114.62 21.6445 114.446 21.6852 114.3 21.7666C114.157 21.8447 114.038 21.9538 113.943 22.0938C113.852 22.2337 113.784 22.3949 113.738 22.5771C113.696 22.7594 113.675 22.9564 113.675 23.168ZM116.888 22.9287L116.355 23.0264C116.359 22.6943 116.404 22.3835 116.492 22.0938C116.58 21.8008 116.709 21.5452 116.878 21.3271C117.05 21.1058 117.264 20.9333 117.518 20.8096C117.775 20.6826 118.071 20.6191 118.406 20.6191C118.667 20.6191 118.901 20.6566 119.109 20.7314C119.321 20.8031 119.502 20.9186 119.651 21.0781C119.801 21.2344 119.915 21.4378 119.993 21.6885C120.075 21.9391 120.115 22.2451 120.115 22.6064V26H118.816V22.6016C118.816 22.3444 118.781 22.1475 118.709 22.0107C118.641 21.874 118.541 21.7796 118.411 21.7275C118.281 21.6722 118.128 21.6445 117.952 21.6445C117.773 21.6445 117.617 21.6787 117.483 21.7471C117.353 21.8122 117.243 21.9033 117.151 22.0205C117.063 22.1377 116.997 22.2744 116.951 22.4307C116.909 22.5837 116.888 22.7497 116.888 22.9287Z" fill="white"/>
<circle cx="28" cy="27" r="16" stroke="#333333" stroke-width="3.5"/>
<path d="M12 27C12 35.8366 19.1634 43 28 43C36.8366 43 44 35.8366 44 27C44 18.1634 36.8366 11 28 11" stroke="#07D272" stroke-width="3.5" stroke-linecap="round"/>
<path opacity="0.7" fill-rule="evenodd" clip-rule="evenodd" d="M22 19.5C22 18.9477 22.4477 18.5 23 18.5H33C33.5523 18.5 34 18.9477 34 19.5V34.5C34 35.0523 33.5523 35.5 33 35.5H23C22.4477 35.5 22 35.0523 22 34.5V19.5ZM23.5 20.5C23.5 20.2239 23.7239 20 24 20H32C32.2761 20 32.5 20.2239 32.5 20.5V32C32.5 32.2761 32.2761 32.5 32 32.5H24C23.7239 32.5 23.5 32.2761 23.5 32V20.5ZM26.5 33.5C26.2239 33.5 26 33.7239 26 34C26 34.2761 26.2239 34.5 26.5 34.5H29.5C29.7761 34.5 30 34.2761 30 34C30 33.7239 29.7761 33.5 29.5 33.5H26.5Z" fill="#E4E4E4"/>
</svg>
