<svg width="316" height="154" viewBox="0 0 316 154" fill="none" xmlns="http://www.w3.org/2000/svg">
<path d="M0 16C0 7.16344 7.16344 0 16 0H300C308.837 0 316 7.16344 316 16V138C316 146.837 308.837 154 300 154H16C7.16344 154 0 146.837 0 138V16Z" fill="#1A1A1A"/>
<path d="M184.734 50.8027V53H175.008V51.125L179.607 46.1934C180.07 45.679 180.434 45.2266 180.701 44.8359C180.968 44.4388 181.16 44.084 181.277 43.7715C181.401 43.4525 181.463 43.1497 181.463 42.8633C181.463 42.4336 181.391 42.0658 181.248 41.7598C181.105 41.4473 180.893 41.2064 180.613 41.0371C180.34 40.8678 180.001 40.7832 179.598 40.7832C179.168 40.7832 178.797 40.8874 178.484 41.0957C178.178 41.304 177.944 41.5938 177.781 41.9648C177.625 42.3359 177.547 42.7559 177.547 43.2246H174.725C174.725 42.3783 174.926 41.6035 175.33 40.9004C175.734 40.1908 176.303 39.6276 177.039 39.2109C177.775 38.7878 178.647 38.5762 179.656 38.5762C180.652 38.5762 181.492 38.7389 182.176 39.0645C182.866 39.3835 183.387 39.8457 183.738 40.4512C184.096 41.0501 184.275 41.7663 184.275 42.5996C184.275 43.0684 184.201 43.5273 184.051 43.9766C183.901 44.4193 183.686 44.862 183.406 45.3047C183.133 45.7409 182.801 46.1836 182.41 46.6328C182.02 47.082 181.587 47.5475 181.111 48.0293L178.641 50.8027H184.734ZM189.139 46.5254L186.893 45.9883L187.703 38.7812H195.691V41.0566H190.018L189.666 44.2109C189.855 44.1003 190.141 43.9831 190.525 43.8594C190.91 43.7292 191.339 43.6641 191.814 43.6641C192.505 43.6641 193.117 43.7715 193.65 43.9863C194.184 44.2012 194.637 44.5137 195.008 44.9238C195.385 45.334 195.672 45.8353 195.867 46.4277C196.062 47.0202 196.16 47.6908 196.16 48.4395C196.16 49.071 196.062 49.6732 195.867 50.2461C195.672 50.8125 195.376 51.3203 194.979 51.7695C194.581 52.2122 194.083 52.5605 193.484 52.8145C192.885 53.0684 192.176 53.1953 191.355 53.1953C190.743 53.1953 190.151 53.1042 189.578 52.9219C189.012 52.7396 188.501 52.4694 188.045 52.1113C187.596 51.7533 187.234 51.3203 186.961 50.8125C186.694 50.2982 186.554 49.7122 186.541 49.0547H189.334C189.373 49.4583 189.477 49.8066 189.646 50.0996C189.822 50.3861 190.053 50.6074 190.34 50.7637C190.626 50.9199 190.962 50.998 191.346 50.998C191.704 50.998 192.01 50.9297 192.264 50.793C192.518 50.6562 192.723 50.4674 192.879 50.2266C193.035 49.9792 193.149 49.6927 193.221 49.3672C193.299 49.0352 193.338 48.6771 193.338 48.293C193.338 47.9089 193.292 47.5605 193.201 47.248C193.11 46.9355 192.97 46.6654 192.781 46.4375C192.592 46.2096 192.352 46.0339 192.059 45.9102C191.772 45.7865 191.437 45.7246 191.053 45.7246C190.532 45.7246 190.128 45.806 189.842 45.9688C189.562 46.1315 189.327 46.3171 189.139 46.5254ZM204.832 38.752V53H202.02V41.9941L198.641 43.0684V40.8516L204.529 38.752H204.832ZM212.342 44.6699H213.846C214.327 44.6699 214.725 44.5885 215.037 44.4258C215.35 44.2565 215.581 44.0221 215.73 43.7227C215.887 43.4167 215.965 43.0618 215.965 42.6582C215.965 42.2936 215.893 41.9714 215.75 41.6914C215.613 41.4049 215.402 41.1836 215.115 41.0273C214.829 40.8646 214.467 40.7832 214.031 40.7832C213.686 40.7832 213.367 40.8516 213.074 40.9883C212.781 41.125 212.547 41.3171 212.371 41.5645C212.195 41.8118 212.107 42.1113 212.107 42.4629H209.285C209.285 41.6816 209.493 41.0013 209.91 40.4219C210.333 39.8424 210.9 39.39 211.609 39.0645C212.319 38.7389 213.1 38.5762 213.953 38.5762C214.917 38.5762 215.76 38.7324 216.482 39.0449C217.205 39.3509 217.768 39.8034 218.172 40.4023C218.576 41.0013 218.777 41.7435 218.777 42.6289C218.777 43.0781 218.673 43.5143 218.465 43.9375C218.257 44.3542 217.957 44.7318 217.566 45.0703C217.182 45.4023 216.714 45.6693 216.16 45.8711C215.607 46.0664 214.985 46.1641 214.295 46.1641H212.342V44.6699ZM212.342 46.8086V45.3535H214.295C215.07 45.3535 215.75 45.4414 216.336 45.6172C216.922 45.793 217.413 46.0469 217.811 46.3789C218.208 46.7044 218.507 47.0918 218.709 47.541C218.911 47.9837 219.012 48.4753 219.012 49.0156C219.012 49.6797 218.885 50.2721 218.631 50.793C218.377 51.3073 218.019 51.7435 217.557 52.1016C217.101 52.4596 216.567 52.7331 215.955 52.9219C215.343 53.1042 214.676 53.1953 213.953 53.1953C213.354 53.1953 212.765 53.1139 212.186 52.9512C211.613 52.7819 211.092 52.5312 210.623 52.1992C210.161 51.8607 209.79 51.4375 209.51 50.9297C209.236 50.4154 209.1 49.8066 209.1 49.1035H211.922C211.922 49.4681 212.013 49.7936 212.195 50.0801C212.378 50.3665 212.628 50.5911 212.947 50.7539C213.273 50.9167 213.634 50.998 214.031 50.998C214.48 50.998 214.865 50.9167 215.184 50.7539C215.509 50.5846 215.757 50.3503 215.926 50.0508C216.102 49.7448 216.189 49.39 216.189 48.9863C216.189 48.4655 216.095 48.0488 215.906 47.7363C215.717 47.4173 215.447 47.1829 215.096 47.0332C214.744 46.8835 214.327 46.8086 213.846 46.8086H212.342Z" fill="white"/>
<path d="M224.434 47.541V53H222.758V46.1318H224.338L224.434 47.541ZM224.186 49.3184H223.672C223.672 48.8402 223.729 48.4001 223.843 47.998C223.962 47.596 224.135 47.2469 224.364 46.9507C224.592 46.6502 224.874 46.4175 225.208 46.2524C225.547 46.0874 225.938 46.0049 226.382 46.0049C226.691 46.0049 226.975 46.0514 227.233 46.1445C227.491 46.2334 227.713 46.3752 227.899 46.5698C228.09 46.7603 228.236 47.0099 228.337 47.3188C228.439 47.6235 228.49 47.9896 228.49 48.417V53H226.814V48.5884C226.814 48.2668 226.767 48.015 226.674 47.833C226.585 47.651 226.456 47.5241 226.287 47.4521C226.118 47.376 225.915 47.3379 225.678 47.3379C225.415 47.3379 225.189 47.3908 224.999 47.4966C224.812 47.5981 224.658 47.7399 224.535 47.9219C224.417 48.1038 224.328 48.3133 224.269 48.5503C224.214 48.7873 224.186 49.0433 224.186 49.3184ZM228.363 49.0073L227.671 49.1343C227.675 48.7026 227.734 48.2985 227.849 47.9219C227.963 47.541 228.13 47.2088 228.35 46.9253C228.574 46.6375 228.852 46.4132 229.182 46.2524C229.516 46.0874 229.901 46.0049 230.337 46.0049C230.675 46.0049 230.98 46.0535 231.251 46.1509C231.526 46.244 231.761 46.3942 231.956 46.6016C232.15 46.8047 232.298 47.0692 232.4 47.395C232.506 47.7209 232.559 48.1187 232.559 48.5884V53H230.87V48.582C230.87 48.2477 230.824 47.9917 230.73 47.814C230.642 47.6362 230.513 47.5135 230.343 47.4458C230.174 47.3739 229.975 47.3379 229.747 47.3379C229.514 47.3379 229.311 47.3823 229.137 47.4712C228.968 47.5558 228.824 47.6743 228.706 47.8267C228.591 47.979 228.505 48.1567 228.445 48.3599C228.39 48.5588 228.363 48.7746 228.363 49.0073ZM237.865 45.1606L235.231 53H233.384L236.837 43.7578H238.018L237.865 45.1606ZM240.068 53L237.421 45.1606L237.262 43.7578H238.449L241.921 53H240.068ZM239.947 49.5659V50.9434H234.99V49.5659H239.947Z" fill="white"/>
<path d="M174.99 21.4688H177.814C178.455 21.4688 178.996 21.5664 179.438 21.7617C179.883 21.957 180.221 22.2461 180.451 22.6289C180.686 23.0078 180.803 23.4746 180.803 24.0293C180.803 24.4199 180.723 24.7773 180.562 25.1016C180.406 25.4219 180.18 25.6953 179.883 25.9219C179.59 26.1445 179.238 26.3105 178.828 26.4199L178.512 26.543H175.857L175.846 25.623H177.85C178.256 25.623 178.594 25.5527 178.863 25.4121C179.133 25.2676 179.336 25.0742 179.473 24.832C179.609 24.5898 179.678 24.3223 179.678 24.0293C179.678 23.7012 179.613 23.4141 179.484 23.168C179.355 22.9219 179.152 22.7324 178.875 22.5996C178.602 22.4629 178.248 22.3945 177.814 22.3945H176.121V30H174.99V21.4688ZM179.977 30L177.902 26.1328L179.08 26.127L181.184 29.9297V30H179.977ZM184.972 30.1172C184.53 30.1172 184.13 30.043 183.77 29.8945C183.415 29.7422 183.108 29.5293 182.85 29.2559C182.597 28.9824 182.401 28.6582 182.265 28.2832C182.128 27.9082 182.059 27.498 182.059 27.0527V26.8066C182.059 26.291 182.136 25.832 182.288 25.4297C182.44 25.0234 182.647 24.6797 182.909 24.3984C183.171 24.1172 183.468 23.9043 183.8 23.7598C184.132 23.6152 184.475 23.543 184.831 23.543C185.284 23.543 185.675 23.6211 186.003 23.7773C186.335 23.9336 186.606 24.1523 186.817 24.4336C187.028 24.7109 187.184 25.0391 187.286 25.418C187.388 25.793 187.438 26.2031 187.438 26.6484V27.1348H182.704V26.25H186.354V26.168C186.339 25.8867 186.28 25.6133 186.179 25.3477C186.081 25.082 185.925 24.8633 185.71 24.6914C185.495 24.5195 185.202 24.4336 184.831 24.4336C184.585 24.4336 184.358 24.4863 184.151 24.5918C183.944 24.6934 183.766 24.8457 183.618 25.0488C183.47 25.252 183.354 25.5 183.272 25.793C183.19 26.0859 183.149 26.4238 183.149 26.8066V27.0527C183.149 27.3535 183.19 27.6367 183.272 27.9023C183.358 28.1641 183.481 28.3945 183.641 28.5938C183.806 28.793 184.003 28.9492 184.233 29.0625C184.468 29.1758 184.733 29.2324 185.03 29.2324C185.413 29.2324 185.737 29.1543 186.003 28.998C186.268 28.8418 186.501 28.6328 186.7 28.3711L187.356 28.8926C187.22 29.0996 187.046 29.2969 186.835 29.4844C186.624 29.6719 186.364 29.8242 186.056 29.9414C185.751 30.0586 185.39 30.1172 184.972 30.1172ZM192.562 28.916V25.6523C192.562 25.4023 192.511 25.1855 192.41 25.002C192.312 24.8145 192.164 24.6699 191.965 24.5684C191.765 24.4668 191.519 24.416 191.226 24.416C190.953 24.416 190.713 24.4629 190.506 24.5566C190.302 24.6504 190.142 24.7734 190.025 24.9258C189.912 25.0781 189.855 25.2422 189.855 25.418H188.771C188.771 25.1914 188.83 24.9668 188.947 24.7441C189.064 24.5215 189.232 24.3203 189.451 24.1406C189.674 23.957 189.939 23.8125 190.248 23.707C190.56 23.5977 190.908 23.543 191.291 23.543C191.752 23.543 192.158 23.6211 192.51 23.7773C192.865 23.9336 193.142 24.1699 193.342 24.4863C193.545 24.7988 193.646 25.1914 193.646 25.6641V28.6172C193.646 28.8281 193.664 29.0527 193.699 29.291C193.738 29.5293 193.795 29.7344 193.869 29.9062V30H192.738C192.683 29.875 192.64 29.709 192.609 29.502C192.578 29.291 192.562 29.0957 192.562 28.916ZM192.75 26.1562L192.761 26.918H191.666C191.357 26.918 191.082 26.9434 190.84 26.9941C190.597 27.041 190.394 27.1133 190.23 27.2109C190.066 27.3086 189.941 27.4316 189.855 27.5801C189.769 27.7246 189.726 27.8945 189.726 28.0898C189.726 28.2891 189.771 28.4707 189.861 28.6348C189.951 28.7988 190.086 28.9297 190.265 29.0273C190.449 29.1211 190.674 29.168 190.939 29.168C191.271 29.168 191.564 29.0977 191.818 28.957C192.072 28.8164 192.273 28.6445 192.422 28.4414C192.574 28.2383 192.656 28.041 192.668 27.8496L193.131 28.3711C193.103 28.5352 193.029 28.7168 192.908 28.916C192.787 29.1152 192.625 29.3066 192.422 29.4902C192.222 29.6699 191.984 29.8203 191.707 29.9414C191.433 30.0586 191.125 30.1172 190.781 30.1172C190.351 30.1172 189.974 30.0332 189.65 29.8652C189.33 29.6973 189.08 29.4727 188.9 29.1914C188.724 28.9062 188.636 28.5879 188.636 28.2363C188.636 27.8965 188.703 27.5977 188.836 27.3398C188.969 27.0781 189.16 26.8613 189.41 26.6895C189.66 26.5137 189.961 26.3809 190.312 26.291C190.664 26.2012 191.056 26.1562 191.49 26.1562H192.75ZM196.649 21V30H195.559V21H196.649ZM200.765 25.9277V26.8184H197.906V25.9277H200.765ZM205.262 21.4688V30H204.149V21.4688H205.262ZM208.004 21.4688V22.3945H201.413V21.4688H208.004ZM210.404 23.6602V30H209.314V23.6602H210.404ZM209.232 21.9785C209.232 21.8027 209.284 21.6543 209.39 21.5332C209.499 21.4121 209.659 21.3516 209.87 21.3516C210.077 21.3516 210.236 21.4121 210.345 21.5332C210.458 21.6543 210.515 21.8027 210.515 21.9785C210.515 22.1465 210.458 22.291 210.345 22.4121C210.236 22.5293 210.077 22.5879 209.87 22.5879C209.659 22.5879 209.499 22.5293 209.39 22.4121C209.284 22.291 209.232 22.1465 209.232 21.9785ZM213.342 24.9199V30H212.252V23.6602H213.283L213.342 24.9199ZM213.119 26.5898L212.615 26.5723C212.619 26.1387 212.676 25.7383 212.785 25.3711C212.895 25 213.057 24.6777 213.272 24.4043C213.486 24.1309 213.754 23.9199 214.074 23.7715C214.395 23.6191 214.766 23.543 215.188 23.543C215.485 23.543 215.758 23.5859 216.008 23.6719C216.258 23.7539 216.475 23.8848 216.658 24.0645C216.842 24.2441 216.985 24.4746 217.086 24.7559C217.188 25.0371 217.238 25.377 217.238 25.7754V30H216.154V25.8281C216.154 25.4961 216.098 25.2305 215.985 25.0312C215.875 24.832 215.719 24.6875 215.516 24.5977C215.313 24.5039 215.074 24.457 214.801 24.457C214.481 24.457 214.213 24.5137 213.998 24.627C213.783 24.7402 213.611 24.8965 213.483 25.0957C213.354 25.2949 213.26 25.5234 213.201 25.7812C213.147 26.0352 213.119 26.3047 213.119 26.5898ZM217.227 25.9922L216.5 26.2148C216.504 25.8672 216.561 25.5332 216.67 25.2129C216.783 24.8926 216.945 24.6074 217.156 24.3574C217.371 24.1074 217.635 23.9102 217.947 23.7656C218.26 23.6172 218.617 23.543 219.02 23.543C219.36 23.543 219.66 23.5879 219.922 23.6777C220.188 23.7676 220.41 23.9062 220.59 24.0938C220.774 24.2773 220.912 24.5137 221.006 24.8027C221.1 25.0918 221.147 25.4355 221.147 25.834V30H220.057V25.8223C220.057 25.4668 220 25.1914 219.887 24.9961C219.778 24.7969 219.621 24.6582 219.418 24.5801C219.219 24.498 218.981 24.457 218.703 24.457C218.465 24.457 218.254 24.498 218.07 24.5801C217.887 24.6621 217.733 24.7754 217.608 24.9199C217.483 25.0605 217.387 25.2227 217.32 25.4062C217.258 25.5898 217.227 25.7852 217.227 25.9922ZM225.538 30.1172C225.097 30.1172 224.696 30.043 224.337 29.8945C223.981 29.7422 223.675 29.5293 223.417 29.2559C223.163 28.9824 222.968 28.6582 222.831 28.2832C222.694 27.9082 222.626 27.498 222.626 27.0527V26.8066C222.626 26.291 222.702 25.832 222.855 25.4297C223.007 25.0234 223.214 24.6797 223.476 24.3984C223.737 24.1172 224.034 23.9043 224.366 23.7598C224.698 23.6152 225.042 23.543 225.397 23.543C225.851 23.543 226.241 23.6211 226.569 23.7773C226.901 23.9336 227.173 24.1523 227.384 24.4336C227.595 24.7109 227.751 25.0391 227.853 25.418C227.954 25.793 228.005 26.2031 228.005 26.6484V27.1348H223.271V26.25H226.921V26.168C226.905 25.8867 226.847 25.6133 226.745 25.3477C226.647 25.082 226.491 24.8633 226.276 24.6914C226.062 24.5195 225.769 24.4336 225.397 24.4336C225.151 24.4336 224.925 24.4863 224.718 24.5918C224.511 24.6934 224.333 24.8457 224.185 25.0488C224.036 25.252 223.921 25.5 223.839 25.793C223.757 26.0859 223.716 26.4238 223.716 26.8066V27.0527C223.716 27.3535 223.757 27.6367 223.839 27.9023C223.925 28.1641 224.048 28.3945 224.208 28.5938C224.372 28.793 224.569 28.9492 224.8 29.0625C225.034 29.1758 225.3 29.2324 225.597 29.2324C225.98 29.2324 226.304 29.1543 226.569 28.998C226.835 28.8418 227.067 28.6328 227.267 28.3711L227.923 28.8926C227.786 29.0996 227.612 29.2969 227.401 29.4844C227.19 29.6719 226.931 29.8242 226.622 29.9414C226.317 30.0586 225.956 30.1172 225.538 30.1172ZM237.802 27.2871H238.927C238.868 27.8262 238.714 28.3086 238.464 28.7344C238.214 29.1602 237.86 29.498 237.403 29.748C236.946 29.9941 236.376 30.1172 235.692 30.1172C235.192 30.1172 234.737 30.0234 234.327 29.8359C233.921 29.6484 233.571 29.3828 233.278 29.0391C232.985 28.6914 232.759 28.2754 232.598 27.791C232.442 27.3027 232.364 26.7598 232.364 26.1621V25.3125C232.364 24.7148 232.442 24.1738 232.598 23.6895C232.759 23.2012 232.987 22.7832 233.284 22.4355C233.585 22.0879 233.946 21.8203 234.368 21.6328C234.79 21.4453 235.264 21.3516 235.792 21.3516C236.436 21.3516 236.981 21.4727 237.427 21.7148C237.872 21.957 238.218 22.293 238.464 22.7227C238.714 23.1484 238.868 23.6426 238.927 24.2051H237.802C237.747 23.8066 237.645 23.4648 237.497 23.1797C237.348 22.8906 237.138 22.668 236.864 22.5117C236.591 22.3555 236.233 22.2773 235.792 22.2773C235.413 22.2773 235.079 22.3496 234.79 22.4941C234.505 22.6387 234.264 22.8438 234.069 23.1094C233.878 23.375 233.733 23.6934 233.636 24.0645C233.538 24.4355 233.489 24.8477 233.489 25.3008V26.1621C233.489 26.5801 233.532 26.9727 233.618 27.3398C233.708 27.707 233.843 28.0293 234.022 28.3066C234.202 28.584 234.43 28.8027 234.708 28.9629C234.985 29.1191 235.313 29.1973 235.692 29.1973C236.173 29.1973 236.555 29.1211 236.841 28.9688C237.126 28.8164 237.341 28.5977 237.485 28.3125C237.634 28.0273 237.739 27.6855 237.802 27.2871ZM244.302 28.5352V23.6602H245.392V30H244.355L244.302 28.5352ZM244.507 27.1992L244.959 27.1875C244.959 27.6094 244.914 28 244.824 28.3594C244.738 28.7148 244.597 29.0234 244.402 29.2852C244.207 29.5469 243.951 29.752 243.634 29.9004C243.318 30.0449 242.933 30.1172 242.48 30.1172C242.172 30.1172 241.888 30.0723 241.631 29.9824C241.377 29.8926 241.158 29.7539 240.974 29.5664C240.791 29.3789 240.648 29.1348 240.547 28.834C240.449 28.5332 240.4 28.1719 240.4 27.75V23.6602H241.484V27.7617C241.484 28.0469 241.515 28.2832 241.578 28.4707C241.644 28.6543 241.732 28.8008 241.841 28.9102C241.955 29.0156 242.08 29.0898 242.216 29.1328C242.357 29.1758 242.502 29.1973 242.65 29.1973C243.111 29.1973 243.476 29.1094 243.746 28.9336C244.015 28.7539 244.209 28.5137 244.326 28.2129C244.447 27.9082 244.507 27.5703 244.507 27.1992ZM248.249 24.6562V30H247.165V23.6602H248.219L248.249 24.6562ZM250.229 23.625L250.223 24.6328C250.133 24.6133 250.047 24.6016 249.965 24.5977C249.887 24.5898 249.797 24.5859 249.696 24.5859C249.446 24.5859 249.225 24.625 249.034 24.7031C248.842 24.7812 248.68 24.8906 248.547 25.0312C248.415 25.1719 248.309 25.3398 248.231 25.5352C248.157 25.7266 248.108 25.9375 248.085 26.168L247.78 26.3438C247.78 25.9609 247.817 25.6016 247.891 25.2656C247.969 24.9297 248.088 24.6328 248.249 24.375C248.409 24.1133 248.612 23.9102 248.858 23.7656C249.108 23.6172 249.405 23.543 249.749 23.543C249.827 23.543 249.917 23.5527 250.018 23.5723C250.12 23.5879 250.19 23.6055 250.229 23.625ZM252.435 24.6562V30H251.351V23.6602H252.406L252.435 24.6562ZM254.415 23.625L254.41 24.6328C254.32 24.6133 254.234 24.6016 254.152 24.5977C254.074 24.5898 253.984 24.5859 253.882 24.5859C253.632 24.5859 253.412 24.625 253.22 24.7031C253.029 24.7812 252.867 24.8906 252.734 25.0312C252.601 25.1719 252.496 25.3398 252.417 25.5352C252.343 25.7266 252.294 25.9375 252.271 26.168L251.966 26.3438C251.966 25.9609 252.003 25.6016 252.078 25.2656C252.156 24.9297 252.275 24.6328 252.435 24.375C252.595 24.1133 252.798 23.9102 253.044 23.7656C253.294 23.6172 253.591 23.543 253.935 23.543C254.013 23.543 254.103 23.5527 254.205 23.5723C254.306 23.5879 254.376 23.6055 254.415 23.625ZM258.051 30.1172C257.61 30.1172 257.209 30.043 256.85 29.8945C256.494 29.7422 256.188 29.5293 255.93 29.2559C255.676 28.9824 255.481 28.6582 255.344 28.2832C255.207 27.9082 255.139 27.498 255.139 27.0527V26.8066C255.139 26.291 255.215 25.832 255.368 25.4297C255.52 25.0234 255.727 24.6797 255.989 24.3984C256.25 24.1172 256.547 23.9043 256.879 23.7598C257.211 23.6152 257.555 23.543 257.91 23.543C258.364 23.543 258.754 23.6211 259.082 23.7773C259.414 23.9336 259.686 24.1523 259.897 24.4336C260.108 24.7109 260.264 25.0391 260.366 25.418C260.467 25.793 260.518 26.2031 260.518 26.6484V27.1348H255.784V26.25H259.434V26.168C259.418 25.8867 259.36 25.6133 259.258 25.3477C259.16 25.082 259.004 24.8633 258.789 24.6914C258.575 24.5195 258.282 24.4336 257.91 24.4336C257.664 24.4336 257.438 24.4863 257.231 24.5918C257.024 24.6934 256.846 24.8457 256.698 25.0488C256.549 25.252 256.434 25.5 256.352 25.793C256.27 26.0859 256.229 26.4238 256.229 26.8066V27.0527C256.229 27.3535 256.27 27.6367 256.352 27.9023C256.438 28.1641 256.561 28.3945 256.721 28.5938C256.885 28.793 257.082 28.9492 257.313 29.0625C257.547 29.1758 257.813 29.2324 258.11 29.2324C258.493 29.2324 258.817 29.1543 259.082 28.998C259.348 28.8418 259.58 28.6328 259.78 28.3711L260.436 28.8926C260.299 29.0996 260.125 29.2969 259.914 29.4844C259.703 29.6719 259.444 29.8242 259.135 29.9414C258.83 30.0586 258.469 30.1172 258.051 30.1172ZM262.988 25.0137V30H261.904V23.6602H262.929L262.988 25.0137ZM262.73 26.5898L262.279 26.5723C262.282 26.1387 262.347 25.7383 262.472 25.3711C262.597 25 262.773 24.6777 262.999 24.4043C263.226 24.1309 263.495 23.9199 263.808 23.7715C264.124 23.6191 264.474 23.543 264.857 23.543C265.169 23.543 265.45 23.5859 265.7 23.6719C265.95 23.7539 266.163 23.8867 266.339 24.0703C266.519 24.2539 266.655 24.4922 266.749 24.7852C266.843 25.0742 266.89 25.4277 266.89 25.8457V30H265.8V25.834C265.8 25.502 265.751 25.2363 265.654 25.0371C265.556 24.834 265.413 24.6875 265.226 24.5977C265.038 24.5039 264.808 24.457 264.534 24.457C264.265 24.457 264.019 24.5137 263.796 24.627C263.577 24.7402 263.388 24.8965 263.228 25.0957C263.071 25.2949 262.948 25.5234 262.859 25.7812C262.773 26.0352 262.73 26.3047 262.73 26.5898ZM271.311 23.6602V24.4922H267.883V23.6602H271.311ZM269.043 22.1191H270.127V28.4297C270.127 28.6445 270.16 28.8066 270.227 28.916C270.293 29.0254 270.379 29.0977 270.484 29.1328C270.59 29.168 270.703 29.1855 270.824 29.1855C270.914 29.1855 271.008 29.1777 271.106 29.1621C271.207 29.1426 271.283 29.127 271.334 29.1152L271.34 30C271.254 30.0273 271.141 30.0527 271 30.0762C270.863 30.1035 270.697 30.1172 270.502 30.1172C270.236 30.1172 269.992 30.0645 269.77 29.959C269.547 29.8535 269.369 29.6777 269.236 29.4316C269.107 29.1816 269.043 28.8457 269.043 28.4238V22.1191Z" fill="#76767A"/>
<path opacity="0.2" d="M177.231 80.687C176.769 80.2773 175.385 77 174 77V138H288V104.038C285.692 104.038 286.154 131.485 283.385 131.485C280.615 131.485 282 101.989 279.231 101.989C276.462 101.989 276.923 127.389 274.615 127.389C272.308 127.389 272.308 111.002 270 111.002C267.692 111.002 268.615 129.437 265.846 129.437C263.077 129.437 264.462 87.6512 261.692 87.6512C258.923 87.6512 259.846 101.58 257.077 101.58C254.308 101.58 256.154 85.1933 252.923 85.1933C249.692 85.1933 250.154 124.111 248.308 124.111C246.462 124.111 246.462 110.183 244.154 110.183C241.846 110.183 240.462 128.618 239.538 128.618C238.615 128.618 237.692 124.931 237.231 119.195C236.769 113.46 235.846 113.05 234.923 113.05C234 113.05 232.615 109.773 232.154 109.363C231.692 108.954 230.769 108.544 229.846 108.544C228.923 108.544 228 106.905 226.154 107.315C224.308 107.725 223.846 127.389 222 127.389C220.154 127.389 218.769 114.689 218.769 113.87C218.769 113.05 217.846 112.231 216.923 111.821C216 111.412 215.077 97.8928 213.231 97.8928C211.385 97.8928 210.462 105.676 210 106.905C209.538 108.134 209.538 108.544 208.154 108.544C206.769 108.544 207.692 112.231 204.462 111.821C201.231 111.412 203.077 86.0126 200.308 86.0126C197.538 86.0126 198 106.086 195.692 106.086C193.385 106.086 193.846 93.3865 191.077 93.3865C189.692 93.3865 188.308 97.0735 186.923 97.0735C185.538 97.0735 184.615 93.3865 184.154 92.1575C183.692 90.9285 182.769 91.3382 181.846 90.5189C180.923 89.6996 180 85.1933 179.538 83.1449C178.985 80.687 177.692 81.0966 177.231 80.687Z" fill="url(#paint0_linear_1575_6772)"/>
<path d="M174 77C175.385 77 176.769 80.2773 177.231 80.687C177.692 81.0966 178.985 80.687 179.538 83.1449C180 85.1933 180.923 89.6996 181.846 90.5189C182.769 91.3382 183.692 90.9285 184.154 92.1575C184.615 93.3865 185.538 97.0735 186.923 97.0735C188.308 97.0735 189.692 93.3865 191.077 93.3865C193.846 93.3865 193.385 106.086 195.692 106.086C198 106.086 197.538 86.0126 200.308 86.0126C203.077 86.0126 201.231 111.412 204.462 111.821C207.692 112.231 206.769 108.544 208.154 108.544C209.538 108.544 209.538 108.134 210 106.905C210.462 105.676 211.385 97.8928 213.231 97.8928C215.077 97.8928 216 111.412 216.923 111.821C217.846 112.231 218.769 113.05 218.769 113.87C218.769 114.689 220.154 127.389 222 127.389C223.846 127.389 224.308 107.725 226.154 107.315C228 106.905 228.923 108.544 229.846 108.544C230.769 108.544 231.692 108.954 232.154 109.363C232.615 109.773 234 113.05 234.923 113.05C235.846 113.05 236.769 113.46 237.231 119.195C237.692 124.931 238.615 128.618 239.538 128.618C240.462 128.618 241.846 110.183 244.154 110.183C246.462 110.183 246.462 124.111 248.308 124.111C250.154 124.111 249.692 85.1933 252.923 85.1933C256.154 85.1933 254.308 101.58 257.077 101.58C259.846 101.58 258.923 87.6512 261.692 87.6512C264.462 87.6512 263.077 129.437 265.846 129.437C268.615 129.437 267.692 111.002 270 111.002C272.308 111.002 272.308 127.389 274.615 127.389C276.923 127.389 276.462 101.989 279.231 101.989C282 101.989 280.615 131.485 283.385 131.485C286.154 131.485 285.692 104.038 288 104.038" stroke="#339AFF" stroke-width="1.5"/>
<path d="M34.4102 29.0801V30H29.8926V29.0801H34.4102ZM30.1211 21.4688V30H28.9902V21.4688H30.1211ZM33.8125 25.1367V26.0566H29.8926V25.1367H33.8125ZM34.3516 21.4688V22.3945H29.8926V21.4688H34.3516ZM39.3379 28.3184C39.3379 28.1621 39.3027 28.0176 39.2324 27.8848C39.166 27.748 39.0273 27.625 38.8164 27.5156C38.6094 27.4023 38.2969 27.3047 37.8789 27.2227C37.5273 27.1484 37.209 27.0605 36.9238 26.959C36.6426 26.8574 36.4023 26.7344 36.2031 26.5898C36.0078 26.4453 35.8574 26.2754 35.752 26.0801C35.6465 25.8848 35.5938 25.6562 35.5938 25.3945C35.5938 25.1445 35.6484 24.9082 35.7578 24.6855C35.8711 24.4629 36.0293 24.2656 36.2324 24.0938C36.4395 23.9219 36.6875 23.7871 36.9766 23.6895C37.2656 23.5918 37.5879 23.543 37.9434 23.543C38.4512 23.543 38.8848 23.6328 39.2441 23.8125C39.6035 23.9922 39.8789 24.2324 40.0703 24.5332C40.2617 24.8301 40.3574 25.1602 40.3574 25.5234H39.2734C39.2734 25.3477 39.2207 25.1777 39.1152 25.0137C39.0137 24.8457 38.8633 24.707 38.6641 24.5977C38.4688 24.4883 38.2285 24.4336 37.9434 24.4336C37.6426 24.4336 37.3984 24.4805 37.2109 24.5742C37.0273 24.6641 36.8926 24.7793 36.8066 24.9199C36.7246 25.0605 36.6836 25.209 36.6836 25.3652C36.6836 25.4824 36.7031 25.5879 36.7422 25.6816C36.7852 25.7715 36.8594 25.8555 36.9648 25.9336C37.0703 26.0078 37.2188 26.0781 37.4102 26.1445C37.6016 26.2109 37.8457 26.2773 38.1426 26.3438C38.6621 26.4609 39.0898 26.6016 39.4258 26.7656C39.7617 26.9297 40.0117 27.1309 40.1758 27.3691C40.3398 27.6074 40.4219 27.8965 40.4219 28.2363C40.4219 28.5137 40.3633 28.7676 40.2461 28.998C40.1328 29.2285 39.9668 29.4277 39.748 29.5957C39.5332 29.7598 39.2754 29.8887 38.9746 29.9824C38.6777 30.0723 38.3438 30.1172 37.9727 30.1172C37.4141 30.1172 36.9414 30.0176 36.5547 29.8184C36.168 29.6191 35.875 29.3613 35.6758 29.0449C35.4766 28.7285 35.377 28.3945 35.377 28.043H36.4668C36.4824 28.3398 36.5684 28.5762 36.7246 28.752C36.8809 28.9238 37.0723 29.0469 37.2988 29.1211C37.5254 29.1914 37.75 29.2266 37.9727 29.2266C38.2695 29.2266 38.5176 29.1875 38.7168 29.1094C38.9199 29.0312 39.0742 28.9238 39.1797 28.7871C39.2852 28.6504 39.3379 28.4941 39.3379 28.3184ZM44.5 23.6602V24.4922H41.0723V23.6602H44.5ZM42.2324 22.1191H43.3164V28.4297C43.3164 28.6445 43.3496 28.8066 43.416 28.916C43.4824 29.0254 43.5684 29.0977 43.6738 29.1328C43.7793 29.168 43.8926 29.1855 44.0137 29.1855C44.1035 29.1855 44.1973 29.1777 44.2949 29.1621C44.3965 29.1426 44.4727 29.127 44.5234 29.1152L44.5293 30C44.4434 30.0273 44.3301 30.0527 44.1895 30.0762C44.0527 30.1035 43.8867 30.1172 43.6914 30.1172C43.4258 30.1172 43.1816 30.0645 42.959 29.959C42.7363 29.8535 42.5586 29.6777 42.4258 29.4316C42.2969 29.1816 42.2324 28.8457 42.2324 28.4238V22.1191ZM46.9492 23.6602V30H45.8594V23.6602H46.9492ZM45.7773 21.9785C45.7773 21.8027 45.8301 21.6543 45.9355 21.5332C46.0449 21.4121 46.2051 21.3516 46.416 21.3516C46.623 21.3516 46.7812 21.4121 46.8906 21.5332C47.0039 21.6543 47.0605 21.8027 47.0605 21.9785C47.0605 22.1465 47.0039 22.291 46.8906 22.4121C46.7812 22.5293 46.623 22.5879 46.416 22.5879C46.2051 22.5879 46.0449 22.5293 45.9355 22.4121C45.8301 22.291 45.7773 22.1465 45.7773 21.9785ZM49.7676 24.9199V30H48.6777V23.6602H49.709L49.7676 24.9199ZM49.5449 26.5898L49.041 26.5723C49.0449 26.1387 49.1016 25.7383 49.2109 25.3711C49.3203 25 49.4824 24.6777 49.6973 24.4043C49.9121 24.1309 50.1797 23.9199 50.5 23.7715C50.8203 23.6191 51.1914 23.543 51.6133 23.543C51.9102 23.543 52.1836 23.5859 52.4336 23.6719C52.6836 23.7539 52.9004 23.8848 53.084 24.0645C53.2676 24.2441 53.4102 24.4746 53.5117 24.7559C53.6133 25.0371 53.6641 25.377 53.6641 25.7754V30H52.5801V25.8281C52.5801 25.4961 52.5234 25.2305 52.4102 25.0312C52.3008 24.832 52.1445 24.6875 51.9414 24.5977C51.7383 24.5039 51.5 24.457 51.2266 24.457C50.9062 24.457 50.6387 24.5137 50.4238 24.627C50.209 24.7402 50.0371 24.8965 49.9082 25.0957C49.7793 25.2949 49.6855 25.5234 49.627 25.7812C49.5723 26.0352 49.5449 26.3047 49.5449 26.5898ZM53.6523 25.9922L52.9258 26.2148C52.9297 25.8672 52.9863 25.5332 53.0957 25.2129C53.209 24.8926 53.3711 24.6074 53.582 24.3574C53.7969 24.1074 54.0605 23.9102 54.373 23.7656C54.6855 23.6172 55.043 23.543 55.4453 23.543C55.7852 23.543 56.0859 23.5879 56.3477 23.6777C56.6133 23.7676 56.8359 23.9062 57.0156 24.0938C57.1992 24.2773 57.3379 24.5137 57.4316 24.8027C57.5254 25.0918 57.5723 25.4355 57.5723 25.834V30H56.4824V25.8223C56.4824 25.4668 56.4258 25.1914 56.3125 24.9961C56.2031 24.7969 56.0469 24.6582 55.8438 24.5801C55.6445 24.498 55.4062 24.457 55.1289 24.457C54.8906 24.457 54.6797 24.498 54.4961 24.5801C54.3125 24.6621 54.1582 24.7754 54.0332 24.9199C53.9082 25.0605 53.8125 25.2227 53.7461 25.4062C53.6836 25.5898 53.6523 25.7852 53.6523 25.9922ZM62.9512 28.916V25.6523C62.9512 25.4023 62.9004 25.1855 62.7988 25.002C62.7012 24.8145 62.5527 24.6699 62.3535 24.5684C62.1543 24.4668 61.9082 24.416 61.6152 24.416C61.3418 24.416 61.1016 24.4629 60.8945 24.5566C60.6914 24.6504 60.5312 24.7734 60.4141 24.9258C60.3008 25.0781 60.2441 25.2422 60.2441 25.418H59.1602C59.1602 25.1914 59.2188 24.9668 59.3359 24.7441C59.4531 24.5215 59.6211 24.3203 59.8398 24.1406C60.0625 23.957 60.3281 23.8125 60.6367 23.707C60.9492 23.5977 61.2969 23.543 61.6797 23.543C62.1406 23.543 62.5469 23.6211 62.8984 23.7773C63.2539 23.9336 63.5312 24.1699 63.7305 24.4863C63.9336 24.7988 64.0352 25.1914 64.0352 25.6641V28.6172C64.0352 28.8281 64.0527 29.0527 64.0879 29.291C64.127 29.5293 64.1836 29.7344 64.2578 29.9062V30H63.127C63.0723 29.875 63.0293 29.709 62.998 29.502C62.9668 29.291 62.9512 29.0957 62.9512 28.916ZM63.1387 26.1562L63.1504 26.918H62.0547C61.7461 26.918 61.4707 26.9434 61.2285 26.9941C60.9863 27.041 60.7832 27.1133 60.6191 27.2109C60.4551 27.3086 60.3301 27.4316 60.2441 27.5801C60.1582 27.7246 60.1152 27.8945 60.1152 28.0898C60.1152 28.2891 60.1602 28.4707 60.25 28.6348C60.3398 28.7988 60.4746 28.9297 60.6543 29.0273C60.8379 29.1211 61.0625 29.168 61.3281 29.168C61.6602 29.168 61.9531 29.0977 62.207 28.957C62.4609 28.8164 62.6621 28.6445 62.8105 28.4414C62.9629 28.2383 63.0449 28.041 63.0566 27.8496L63.5195 28.3711C63.4922 28.5352 63.418 28.7168 63.2969 28.916C63.1758 29.1152 63.0137 29.3066 62.8105 29.4902C62.6113 29.6699 62.373 29.8203 62.0957 29.9414C61.8223 30.0586 61.5137 30.1172 61.1699 30.1172C60.7402 30.1172 60.3633 30.0332 60.0391 29.8652C59.7188 29.6973 59.4688 29.4727 59.2891 29.1914C59.1133 28.9062 59.0254 28.5879 59.0254 28.2363C59.0254 27.8965 59.0918 27.5977 59.2246 27.3398C59.3574 27.0781 59.5488 26.8613 59.7988 26.6895C60.0488 26.5137 60.3496 26.3809 60.7012 26.291C61.0527 26.2012 61.4453 26.1562 61.8789 26.1562H63.1387ZM68.3945 23.6602V24.4922H64.9668V23.6602H68.3945ZM66.127 22.1191H67.2109V28.4297C67.2109 28.6445 67.2441 28.8066 67.3105 28.916C67.377 29.0254 67.4629 29.0977 67.5684 29.1328C67.6738 29.168 67.7871 29.1855 67.9082 29.1855C67.998 29.1855 68.0918 29.1777 68.1895 29.1621C68.291 29.1426 68.3672 29.127 68.418 29.1152L68.4238 30C68.3379 30.0273 68.2246 30.0527 68.084 30.0762C67.9473 30.1035 67.7812 30.1172 67.5859 30.1172C67.3203 30.1172 67.0762 30.0645 66.8535 29.959C66.6309 29.8535 66.4531 29.6777 66.3203 29.4316C66.1914 29.1816 66.127 28.8457 66.127 28.4238V22.1191ZM72.2969 30.1172C71.8555 30.1172 71.4551 30.043 71.0957 29.8945C70.7402 29.7422 70.4336 29.5293 70.1758 29.2559C69.9219 28.9824 69.7266 28.6582 69.5898 28.2832C69.4531 27.9082 69.3848 27.498 69.3848 27.0527V26.8066C69.3848 26.291 69.4609 25.832 69.6133 25.4297C69.7656 25.0234 69.9727 24.6797 70.2344 24.3984C70.4961 24.1172 70.793 23.9043 71.125 23.7598C71.457 23.6152 71.8008 23.543 72.1562 23.543C72.6094 23.543 73 23.6211 73.3281 23.7773C73.6602 23.9336 73.9316 24.1523 74.1426 24.4336C74.3535 24.7109 74.5098 25.0391 74.6113 25.418C74.7129 25.793 74.7637 26.2031 74.7637 26.6484V27.1348H70.0293V26.25H73.6797V26.168C73.6641 25.8867 73.6055 25.6133 73.5039 25.3477C73.4062 25.082 73.25 24.8633 73.0352 24.6914C72.8203 24.5195 72.5273 24.4336 72.1562 24.4336C71.9102 24.4336 71.6836 24.4863 71.4766 24.5918C71.2695 24.6934 71.0918 24.8457 70.9434 25.0488C70.7949 25.252 70.6797 25.5 70.5977 25.793C70.5156 26.0859 70.4746 26.4238 70.4746 26.8066V27.0527C70.4746 27.3535 70.5156 27.6367 70.5977 27.9023C70.6836 28.1641 70.8066 28.3945 70.9668 28.5938C71.1309 28.793 71.3281 28.9492 71.5586 29.0625C71.793 29.1758 72.0586 29.2324 72.3555 29.2324C72.7383 29.2324 73.0625 29.1543 73.3281 28.998C73.5938 28.8418 73.8262 28.6328 74.0254 28.3711L74.6816 28.8926C74.5449 29.0996 74.3711 29.2969 74.1602 29.4844C73.9492 29.6719 73.6895 29.8242 73.3809 29.9414C73.0762 30.0586 72.7148 30.1172 72.2969 30.1172ZM80.0254 28.7695V21H81.1152V30H80.1191L80.0254 28.7695ZM75.7598 26.9004V26.7773C75.7598 26.293 75.8184 25.8535 75.9355 25.459C76.0566 25.0605 76.2266 24.7188 76.4453 24.4336C76.668 24.1484 76.9316 23.9297 77.2363 23.7773C77.5449 23.6211 77.8887 23.543 78.2676 23.543C78.666 23.543 79.0137 23.6133 79.3105 23.7539C79.6113 23.8906 79.8652 24.0918 80.0723 24.3574C80.2832 24.6191 80.4492 24.9355 80.5703 25.3066C80.6914 25.6777 80.7754 26.0977 80.8223 26.5664V27.1055C80.7793 27.5703 80.6953 27.9883 80.5703 28.3594C80.4492 28.7305 80.2832 29.0469 80.0723 29.3086C79.8652 29.5703 79.6113 29.7715 79.3105 29.9121C79.0098 30.0488 78.6582 30.1172 78.2559 30.1172C77.8848 30.1172 77.5449 30.0371 77.2363 29.877C76.9316 29.7168 76.668 29.4922 76.4453 29.2031C76.2266 28.9141 76.0566 28.5742 75.9355 28.1836C75.8184 27.7891 75.7598 27.3613 75.7598 26.9004ZM76.8496 26.7773V26.9004C76.8496 27.2168 76.8809 27.5137 76.9434 27.791C77.0098 28.0684 77.1113 28.3125 77.248 28.5234C77.3848 28.7344 77.5586 28.9004 77.7695 29.0215C77.9805 29.1387 78.2324 29.1973 78.5254 29.1973C78.8848 29.1973 79.1797 29.1211 79.4102 28.9688C79.6445 28.8164 79.832 28.6152 79.9727 28.3652C80.1133 28.1152 80.2227 27.8438 80.3008 27.5508V26.1387C80.2539 25.9238 80.1855 25.7168 80.0957 25.5176C80.0098 25.3145 79.8965 25.1348 79.7559 24.9785C79.6191 24.8184 79.4492 24.6914 79.2461 24.5977C79.0469 24.5039 78.8105 24.457 78.5371 24.457C78.2402 24.457 77.9844 24.5195 77.7695 24.6445C77.5586 24.7656 77.3848 24.9336 77.248 25.1484C77.1113 25.3594 77.0098 25.6055 76.9434 25.8867C76.8809 26.1641 76.8496 26.4609 76.8496 26.7773ZM88.9844 26.0098H86.8223L86.8105 25.1016H88.7734C89.0977 25.1016 89.3809 25.0469 89.623 24.9375C89.8652 24.8281 90.0527 24.6719 90.1855 24.4688C90.3223 24.2617 90.3906 24.0156 90.3906 23.7305C90.3906 23.418 90.3301 23.1641 90.209 22.9688C90.0918 22.7695 89.9102 22.625 89.6641 22.5352C89.4219 22.4414 89.1133 22.3945 88.7383 22.3945H87.0742V30H85.9434V21.4688H88.7383C89.1758 21.4688 89.5664 21.5137 89.9102 21.6035C90.2539 21.6895 90.5449 21.8262 90.7832 22.0137C91.0254 22.1973 91.209 22.4316 91.334 22.7168C91.459 23.002 91.5215 23.3438 91.5215 23.7422C91.5215 24.0938 91.4316 24.4121 91.252 24.6973C91.0723 24.9785 90.8223 25.209 90.502 25.3887C90.1855 25.5684 89.8145 25.6836 89.3887 25.7344L88.9844 26.0098ZM88.9316 30H86.377L87.0156 29.0801H88.9316C89.291 29.0801 89.5957 29.0176 89.8457 28.8926C90.0996 28.7676 90.293 28.5918 90.4258 28.3652C90.5586 28.1348 90.625 27.8633 90.625 27.5508C90.625 27.2344 90.5684 26.9609 90.4551 26.7305C90.3418 26.5 90.1641 26.3223 89.9219 26.1973C89.6797 26.0723 89.3672 26.0098 88.9844 26.0098H87.373L87.3848 25.1016H89.5879L89.8281 25.4297C90.2383 25.4648 90.5859 25.582 90.8711 25.7812C91.1562 25.9766 91.373 26.2266 91.5215 26.5312C91.6738 26.8359 91.75 27.1719 91.75 27.5391C91.75 28.0703 91.6328 28.5195 91.3984 28.8867C91.168 29.25 90.8418 29.5273 90.4199 29.7188C89.998 29.9062 89.502 30 88.9316 30ZM96.9941 28.916V25.6523C96.9941 25.4023 96.9434 25.1855 96.8418 25.002C96.7441 24.8145 96.5957 24.6699 96.3965 24.5684C96.1973 24.4668 95.9512 24.416 95.6582 24.416C95.3848 24.416 95.1445 24.4629 94.9375 24.5566C94.7344 24.6504 94.5742 24.7734 94.457 24.9258C94.3438 25.0781 94.2871 25.2422 94.2871 25.418H93.2031C93.2031 25.1914 93.2617 24.9668 93.3789 24.7441C93.4961 24.5215 93.6641 24.3203 93.8828 24.1406C94.1055 23.957 94.3711 23.8125 94.6797 23.707C94.9922 23.5977 95.3398 23.543 95.7227 23.543C96.1836 23.543 96.5898 23.6211 96.9414 23.7773C97.2969 23.9336 97.5742 24.1699 97.7734 24.4863C97.9766 24.7988 98.0781 25.1914 98.0781 25.6641V28.6172C98.0781 28.8281 98.0957 29.0527 98.1309 29.291C98.1699 29.5293 98.2266 29.7344 98.3008 29.9062V30H97.1699C97.1152 29.875 97.0723 29.709 97.041 29.502C97.0098 29.291 96.9941 29.0957 96.9941 28.916ZM97.1816 26.1562L97.1934 26.918H96.0977C95.7891 26.918 95.5137 26.9434 95.2715 26.9941C95.0293 27.041 94.8262 27.1133 94.6621 27.2109C94.498 27.3086 94.373 27.4316 94.2871 27.5801C94.2012 27.7246 94.1582 27.8945 94.1582 28.0898C94.1582 28.2891 94.2031 28.4707 94.293 28.6348C94.3828 28.7988 94.5176 28.9297 94.6973 29.0273C94.8809 29.1211 95.1055 29.168 95.3711 29.168C95.7031 29.168 95.9961 29.0977 96.25 28.957C96.5039 28.8164 96.7051 28.6445 96.8535 28.4414C97.0059 28.2383 97.0879 28.041 97.0996 27.8496L97.5625 28.3711C97.5352 28.5352 97.4609 28.7168 97.3398 28.916C97.2188 29.1152 97.0566 29.3066 96.8535 29.4902C96.6543 29.6699 96.416 29.8203 96.1387 29.9414C95.8652 30.0586 95.5566 30.1172 95.2129 30.1172C94.7832 30.1172 94.4062 30.0332 94.082 29.8652C93.7617 29.6973 93.5117 29.4727 93.332 29.1914C93.1562 28.9062 93.0684 28.5879 93.0684 28.2363C93.0684 27.8965 93.1348 27.5977 93.2676 27.3398C93.4004 27.0781 93.5918 26.8613 93.8418 26.6895C94.0918 26.5137 94.3926 26.3809 94.7441 26.291C95.0957 26.2012 95.4883 26.1562 95.9219 26.1562H97.1816ZM102.438 23.6602V24.4922H99.0098V23.6602H102.438ZM100.17 22.1191H101.254V28.4297C101.254 28.6445 101.287 28.8066 101.354 28.916C101.42 29.0254 101.506 29.0977 101.611 29.1328C101.717 29.168 101.83 29.1855 101.951 29.1855C102.041 29.1855 102.135 29.1777 102.232 29.1621C102.334 29.1426 102.41 29.127 102.461 29.1152L102.467 30C102.381 30.0273 102.268 30.0527 102.127 30.0762C101.99 30.1035 101.824 30.1172 101.629 30.1172C101.363 30.1172 101.119 30.0645 100.896 29.959C100.674 29.8535 100.496 29.6777 100.363 29.4316C100.234 29.1816 100.17 28.8457 100.17 28.4238V22.1191ZM106.363 23.6602V24.4922H102.936V23.6602H106.363ZM104.096 22.1191H105.18V28.4297C105.18 28.6445 105.213 28.8066 105.279 28.916C105.346 29.0254 105.432 29.0977 105.537 29.1328C105.643 29.168 105.756 29.1855 105.877 29.1855C105.967 29.1855 106.061 29.1777 106.158 29.1621C106.26 29.1426 106.336 29.127 106.387 29.1152L106.393 30C106.307 30.0273 106.193 30.0527 106.053 30.0762C105.916 30.1035 105.75 30.1172 105.555 30.1172C105.289 30.1172 105.045 30.0645 104.822 29.959C104.6 29.8535 104.422 29.6777 104.289 29.4316C104.16 29.1816 104.096 28.8457 104.096 28.4238V22.1191ZM110.266 30.1172C109.824 30.1172 109.424 30.043 109.064 29.8945C108.709 29.7422 108.402 29.5293 108.145 29.2559C107.891 28.9824 107.695 28.6582 107.559 28.2832C107.422 27.9082 107.354 27.498 107.354 27.0527V26.8066C107.354 26.291 107.43 25.832 107.582 25.4297C107.734 25.0234 107.941 24.6797 108.203 24.3984C108.465 24.1172 108.762 23.9043 109.094 23.7598C109.426 23.6152 109.77 23.543 110.125 23.543C110.578 23.543 110.969 23.6211 111.297 23.7773C111.629 23.9336 111.9 24.1523 112.111 24.4336C112.322 24.7109 112.479 25.0391 112.58 25.418C112.682 25.793 112.732 26.2031 112.732 26.6484V27.1348H107.998V26.25H111.648V26.168C111.633 25.8867 111.574 25.6133 111.473 25.3477C111.375 25.082 111.219 24.8633 111.004 24.6914C110.789 24.5195 110.496 24.4336 110.125 24.4336C109.879 24.4336 109.652 24.4863 109.445 24.5918C109.238 24.6934 109.061 24.8457 108.912 25.0488C108.764 25.252 108.648 25.5 108.566 25.793C108.484 26.0859 108.443 26.4238 108.443 26.8066V27.0527C108.443 27.3535 108.484 27.6367 108.566 27.9023C108.652 28.1641 108.775 28.3945 108.936 28.5938C109.1 28.793 109.297 28.9492 109.527 29.0625C109.762 29.1758 110.027 29.2324 110.324 29.2324C110.707 29.2324 111.031 29.1543 111.297 28.998C111.562 28.8418 111.795 28.6328 111.994 28.3711L112.65 28.8926C112.514 29.0996 112.34 29.2969 112.129 29.4844C111.918 29.6719 111.658 29.8242 111.35 29.9414C111.045 30.0586 110.684 30.1172 110.266 30.1172ZM115.082 24.6562V30H113.998V23.6602H115.053L115.082 24.6562ZM117.062 23.625L117.057 24.6328C116.967 24.6133 116.881 24.6016 116.799 24.5977C116.721 24.5898 116.631 24.5859 116.529 24.5859C116.279 24.5859 116.059 24.625 115.867 24.7031C115.676 24.7812 115.514 24.8906 115.381 25.0312C115.248 25.1719 115.143 25.3398 115.064 25.5352C114.99 25.7266 114.941 25.9375 114.918 26.168L114.613 26.3438C114.613 25.9609 114.65 25.6016 114.725 25.2656C114.803 24.9297 114.922 24.6328 115.082 24.375C115.242 24.1133 115.445 23.9102 115.691 23.7656C115.941 23.6172 116.238 23.543 116.582 23.543C116.66 23.543 116.75 23.5527 116.852 23.5723C116.953 23.5879 117.023 23.6055 117.062 23.625ZM119.951 29.3438L121.715 23.6602H122.875L120.332 30.9785C120.273 31.1348 120.195 31.3027 120.098 31.4824C120.004 31.666 119.883 31.8398 119.734 32.0039C119.586 32.168 119.406 32.3008 119.195 32.4023C118.988 32.5078 118.74 32.5605 118.451 32.5605C118.365 32.5605 118.256 32.5488 118.123 32.5254C117.99 32.502 117.896 32.4824 117.842 32.4668L117.836 31.5879C117.867 31.5918 117.916 31.5957 117.982 31.5996C118.053 31.6074 118.102 31.6113 118.129 31.6113C118.375 31.6113 118.584 31.5781 118.756 31.5117C118.928 31.4492 119.072 31.3418 119.189 31.1895C119.311 31.041 119.414 30.8359 119.5 30.5742L119.951 29.3438ZM118.656 23.6602L120.303 28.582L120.584 29.7246L119.805 30.123L117.473 23.6602H118.656Z" fill="#76767A"/>
<path d="M38.5469 44.6406V47.1016C38.5469 48.1693 38.4329 49.0905 38.2051 49.8652C37.9772 50.6335 37.6484 51.265 37.2188 51.7598C36.7956 52.248 36.291 52.6094 35.7051 52.8438C35.1191 53.0781 34.4681 53.1953 33.752 53.1953C33.179 53.1953 32.6452 53.1237 32.1504 52.9805C31.6556 52.8307 31.2096 52.5996 30.8125 52.2871C30.4219 51.9746 30.0833 51.5807 29.7969 51.1055C29.5169 50.6237 29.3021 50.0508 29.1523 49.3867C29.0026 48.7227 28.9277 47.9609 28.9277 47.1016V44.6406C28.9277 43.5729 29.0417 42.6582 29.2695 41.8965C29.5039 41.1283 29.8327 40.5 30.2559 40.0117C30.6855 39.5234 31.1934 39.1654 31.7793 38.9375C32.3652 38.7031 33.0163 38.5859 33.7324 38.5859C34.3053 38.5859 34.8359 38.6608 35.3242 38.8105C35.819 38.9538 36.265 39.1784 36.6621 39.4844C37.0592 39.7904 37.3978 40.1842 37.6777 40.666C37.9577 41.1413 38.1725 41.7109 38.3223 42.375C38.472 43.0326 38.5469 43.7878 38.5469 44.6406ZM35.7246 47.4727V44.2598C35.7246 43.7454 35.6953 43.2962 35.6367 42.9121C35.5846 42.528 35.5033 42.2025 35.3926 41.9355C35.2819 41.6621 35.1452 41.4408 34.9824 41.2715C34.8197 41.1022 34.6341 40.9785 34.4258 40.9004C34.2174 40.8223 33.9863 40.7832 33.7324 40.7832C33.4134 40.7832 33.1302 40.8451 32.8828 40.9688C32.6419 41.0924 32.4368 41.291 32.2676 41.5645C32.0983 41.8314 31.9681 42.1895 31.877 42.6387C31.7923 43.0814 31.75 43.6217 31.75 44.2598V47.4727C31.75 47.987 31.776 48.4395 31.8281 48.8301C31.8867 49.2207 31.9714 49.556 32.082 49.8359C32.1992 50.1094 32.3359 50.334 32.4922 50.5098C32.6549 50.679 32.8405 50.8027 33.0488 50.8809C33.2637 50.959 33.498 50.998 33.752 50.998C34.0645 50.998 34.3411 50.9362 34.582 50.8125C34.8294 50.6823 35.0378 50.4805 35.207 50.207C35.3828 49.9271 35.513 49.5625 35.5977 49.1133C35.6823 48.6641 35.7246 48.1172 35.7246 47.4727ZM50.1875 50.8027V53H40.4609V51.125L45.0605 46.1934C45.5228 45.679 45.8874 45.2266 46.1543 44.8359C46.4212 44.4388 46.6133 44.084 46.7305 43.7715C46.8542 43.4525 46.916 43.1497 46.916 42.8633C46.916 42.4336 46.8444 42.0658 46.7012 41.7598C46.5579 41.4473 46.3464 41.2064 46.0664 41.0371C45.793 40.8678 45.4544 40.7832 45.0508 40.7832C44.6211 40.7832 44.25 40.8874 43.9375 41.0957C43.6315 41.304 43.3971 41.5938 43.2344 41.9648C43.0781 42.3359 43 42.7559 43 43.2246H40.1777C40.1777 42.3783 40.3796 41.6035 40.7832 40.9004C41.1868 40.1908 41.7565 39.6276 42.4922 39.2109C43.2279 38.7878 44.1003 38.5762 45.1094 38.5762C46.1055 38.5762 46.9453 38.7389 47.6289 39.0645C48.319 39.3835 48.8398 39.8457 49.1914 40.4512C49.5495 41.0501 49.7285 41.7663 49.7285 42.5996C49.7285 43.0684 49.6536 43.5273 49.5039 43.9766C49.3542 44.4193 49.1393 44.862 48.8594 45.3047C48.5859 45.7409 48.2539 46.1836 47.8633 46.6328C47.4727 47.082 47.0397 47.5475 46.5645 48.0293L44.0938 50.8027H50.1875Z" fill="white"/>
<path d="M55.3994 43.25V53H53.7173V43.25H55.3994ZM55.1328 49.3184H54.6377C54.6377 48.8402 54.7012 48.4001 54.8281 47.998C54.9551 47.596 55.1349 47.2469 55.3677 46.9507C55.6004 46.6502 55.8776 46.4175 56.1992 46.2524C56.5251 46.0874 56.8848 46.0049 57.2783 46.0049C57.6169 46.0049 57.9237 46.0535 58.1987 46.1509C58.478 46.244 58.7171 46.3942 58.916 46.6016C59.1149 46.8089 59.2673 47.0798 59.373 47.4141C59.4831 47.7441 59.5381 48.1462 59.5381 48.6201V53H57.8496V48.6074C57.8496 48.29 57.8031 48.0404 57.71 47.8584C57.6169 47.6722 57.4836 47.5389 57.3101 47.4585C57.1408 47.3781 56.9313 47.3379 56.6816 47.3379C56.4108 47.3379 56.1781 47.3908 55.9834 47.4966C55.7887 47.5981 55.6279 47.7399 55.501 47.9219C55.3783 48.1038 55.2852 48.3133 55.2217 48.5503C55.1624 48.7873 55.1328 49.0433 55.1328 49.3184Z" fill="white"/>
<path d="M77.9375 47.6875V49.8945H67.6934L67.5566 48.1855L73.4844 38.7812H75.7207L73.2988 42.834L70.3496 47.6875H77.9375ZM76.3262 38.7812V53H73.5137V38.7812H76.3262ZM89.4219 47.6875V49.8945H79.1777L79.041 48.1855L84.9688 38.7812H87.2051L84.7832 42.834L81.834 47.6875H89.4219ZM87.8105 38.7812V53H84.998V38.7812H87.8105Z" fill="white"/>
<path d="M94.4248 47.541V53H92.749V46.1318H94.3296L94.4248 47.541ZM94.1772 49.3184H93.6631C93.6631 48.8402 93.7202 48.4001 93.8345 47.998C93.953 47.596 94.1265 47.2469 94.355 46.9507C94.5835 46.6502 94.8649 46.4175 95.1992 46.2524C95.5378 46.0874 95.9292 46.0049 96.3735 46.0049C96.6825 46.0049 96.966 46.0514 97.2241 46.1445C97.4823 46.2334 97.7044 46.3752 97.8906 46.5698C98.0811 46.7603 98.2271 47.0099 98.3286 47.3188C98.4302 47.6235 98.481 47.9896 98.481 48.417V53H96.8052V48.5884C96.8052 48.2668 96.7586 48.015 96.6655 47.833C96.5767 47.651 96.4476 47.5241 96.2783 47.4521C96.109 47.376 95.9059 47.3379 95.6689 47.3379C95.4066 47.3379 95.1802 47.3908 94.9897 47.4966C94.8035 47.5981 94.6491 47.7399 94.5264 47.9219C94.4079 48.1038 94.319 48.3133 94.2598 48.5503C94.2048 48.7873 94.1772 49.0433 94.1772 49.3184ZM98.354 49.0073L97.6621 49.1343C97.6663 48.7026 97.7256 48.2985 97.8398 47.9219C97.9541 47.541 98.1213 47.2088 98.3413 46.9253C98.5656 46.6375 98.8428 46.4132 99.1729 46.2524C99.5072 46.0874 99.8923 46.0049 100.328 46.0049C100.667 46.0049 100.971 46.0535 101.242 46.1509C101.517 46.244 101.752 46.3942 101.947 46.6016C102.141 46.8047 102.29 47.0692 102.391 47.395C102.497 47.7209 102.55 48.1187 102.55 48.5884V53H100.861V48.582C100.861 48.2477 100.815 47.9917 100.722 47.814C100.633 47.6362 100.504 47.5135 100.334 47.4458C100.165 47.3739 99.9663 47.3379 99.7378 47.3379C99.505 47.3379 99.3019 47.3823 99.1284 47.4712C98.9591 47.5558 98.8153 47.6743 98.6968 47.8267C98.5825 47.979 98.4958 48.1567 98.4365 48.3599C98.3815 48.5588 98.354 48.7746 98.354 49.0073Z" fill="white"/>
<path fill-rule="evenodd" clip-rule="evenodd" d="M34 90C30.6863 90 28 92.6863 28 96V124C28 127.314 30.6863 130 34 130H112C115.314 130 118 127.314 118 124V96C118 92.6863 115.314 90 112 90H34ZM121 102H120V118H121C123.209 118 125 116.209 125 114V106C125 103.791 123.209 102 121 102Z" fill="#2B2E33"/>
<path d="M28 96C28 92.6863 30.6863 90 34 90H98V130H34C30.6863 130 28 127.314 28 124V96Z" fill="#07D272"/>
<defs>
<linearGradient id="paint0_linear_1575_6772" x1="231" y1="77" x2="231" y2="138" gradientUnits="userSpaceOnUse">
<stop stop-color="#339AFF"/>
<stop offset="1" stop-color="#339AFF" stop-opacity="0"/>
</linearGradient>
</defs>
</svg>
