<svg width="154" height="54" viewBox="0 0 154 54" fill="none" xmlns="http://www.w3.org/2000/svg">
<rect width="154" height="54" rx="16" fill="#1A1A1A"/>
<path opacity="0.2" d="M11.6493 27.6167C11.1119 27.6167 10.5746 26.6497 9.5 26.8914V45.001H45.5V24.9573C44.1567 24.9573 44.4254 41.1558 42.8134 41.1558C41.2015 41.1558 42.0075 23.7484 40.3955 23.7484C38.7836 23.7484 39.0522 38.7381 37.7089 38.7381C36.3657 38.7381 36.3657 29.0673 35.0224 29.0673C33.6791 29.0673 34.2164 39.9469 32.6045 39.9469C30.9925 39.9469 31.7985 15.2865 30.1866 15.2865C28.5746 15.2865 29.1119 23.5067 27.5 23.5067C25.8881 23.5067 26.9627 13.8359 25.0821 13.8359C23.2015 13.8359 23.4701 36.8039 22.3955 36.8039C21.3209 36.8039 21.3209 28.5838 19.9776 28.5838C18.6343 28.5838 17.8284 39.4634 17.291 39.4634C16.7537 39.4634 16.2164 37.2875 15.9478 33.9027C15.6791 30.518 15.1418 30.2762 14.6045 30.2762C14.0672 30.2762 13.2612 28.342 12.9925 28.1003C12.7239 27.8585 12.1866 27.6167 11.6493 27.6167Z" fill="url(#paint0_linear_1575_6468)"/>
<path d="M10.5 26.9027C11.5448 26.6637 12.0672 27.6195 12.5896 27.6195C13.1119 27.6195 13.6343 27.8584 13.8955 28.0973C14.1567 28.3363 14.9403 30.2478 15.4627 30.2478C15.9851 30.2478 16.5075 30.4867 16.7687 33.8319C17.0298 37.177 17.5522 39.3274 18.0746 39.3274C18.597 39.3274 19.3806 28.5752 20.6866 28.5752C21.9925 28.5752 21.9925 36.6991 23.0373 36.6991C24.0821 36.6991 23.8209 14 25.6492 14C27.4776 14 26.4328 23.5575 28 23.5575C29.5672 23.5575 29.0448 15.4336 30.6119 15.4336C32.1791 15.4336 31.3955 39.8053 32.9627 39.8053C34.5298 39.8053 34.0075 29.0531 35.3134 29.0531C36.6194 29.0531 36.6194 38.6106 37.9254 38.6106C39.2313 38.6106 38.9701 23.7965 40.5373 23.7965C42.1045 23.7965 41.3209 41 42.8881 41C44.4552 41 44.194 24.9911 45.5 24.9911" stroke="#339AFF" stroke-width="1.5" stroke-linecap="round"/>
<path d="M57.8252 33.8906H60.1787C60.7126 33.8906 61.1634 33.972 61.5312 34.1348C61.9023 34.2975 62.1839 34.5384 62.376 34.8574C62.5713 35.1732 62.6689 35.5622 62.6689 36.0244C62.6689 36.3499 62.6022 36.6478 62.4688 36.918C62.3385 37.1849 62.1497 37.4128 61.9023 37.6016C61.6582 37.7871 61.3652 37.9255 61.0234 38.0166L60.7598 38.1191H58.5479L58.5381 37.3525H60.208C60.5465 37.3525 60.8281 37.2939 61.0527 37.1768C61.2773 37.0563 61.4466 36.8952 61.5605 36.6934C61.6745 36.4915 61.7314 36.2686 61.7314 36.0244C61.7314 35.751 61.6777 35.5117 61.5703 35.3066C61.4629 35.1016 61.2936 34.9437 61.0625 34.833C60.8346 34.7191 60.54 34.6621 60.1787 34.6621H58.7676V41H57.8252V33.8906ZM61.9805 41L60.252 37.7773L61.2334 37.7725L62.9863 40.9414V41H61.9805ZM66.143 41.0977C65.7751 41.0977 65.4415 41.0358 65.142 40.9121C64.8458 40.7852 64.5902 40.6077 64.3754 40.3799C64.1638 40.152 64.001 39.8818 63.8871 39.5693C63.7732 39.2568 63.7162 38.915 63.7162 38.5439V38.3389C63.7162 37.9092 63.7797 37.5267 63.9066 37.1914C64.0336 36.8529 64.2061 36.5664 64.4242 36.332C64.6423 36.0977 64.8897 35.9202 65.1664 35.7998C65.4431 35.6794 65.7296 35.6191 66.0258 35.6191C66.4034 35.6191 66.7289 35.6842 67.0023 35.8145C67.279 35.9447 67.5053 36.127 67.6811 36.3613C67.8568 36.5924 67.987 36.8659 68.0717 37.1816C68.1563 37.4941 68.1986 37.8359 68.1986 38.207V38.6123H64.2533V37.875H67.2953V37.8066C67.2823 37.5723 67.2335 37.3444 67.1488 37.123C67.0674 36.9017 66.9372 36.7194 66.7582 36.5762C66.5792 36.4329 66.335 36.3613 66.0258 36.3613C65.8207 36.3613 65.6319 36.4053 65.4594 36.4932C65.2868 36.5778 65.1387 36.7048 65.015 36.874C64.8913 37.0433 64.7953 37.25 64.727 37.4941C64.6586 37.7383 64.6244 38.0199 64.6244 38.3389V38.5439C64.6244 38.7946 64.6586 39.0306 64.727 39.252C64.7986 39.4701 64.9011 39.6621 65.0346 39.8281C65.1713 39.9941 65.3357 40.1243 65.5277 40.2188C65.723 40.3132 65.9444 40.3604 66.1918 40.3604C66.5108 40.3604 66.781 40.2952 67.0023 40.165C67.2237 40.0348 67.4174 39.8607 67.5834 39.6426L68.1303 40.0771C68.0163 40.2497 67.8715 40.4141 67.6957 40.5703C67.5199 40.7266 67.3035 40.8535 67.0463 40.9512C66.7924 41.0488 66.4913 41.0977 66.143 41.0977ZM72.4686 40.0967V37.377C72.4686 37.1686 72.4262 36.988 72.3416 36.835C72.2602 36.6787 72.1365 36.5583 71.9705 36.4736C71.8045 36.389 71.5994 36.3467 71.3553 36.3467C71.1274 36.3467 70.9272 36.3857 70.7547 36.4639C70.5854 36.542 70.452 36.6445 70.3543 36.7715C70.2599 36.8984 70.2127 37.0352 70.2127 37.1816H69.3094C69.3094 36.9928 69.3582 36.8057 69.4559 36.6201C69.5535 36.4346 69.6935 36.2669 69.8758 36.1172C70.0613 35.9642 70.2827 35.8438 70.5398 35.7559C70.8003 35.6647 71.09 35.6191 71.409 35.6191C71.7931 35.6191 72.1316 35.6842 72.4246 35.8145C72.7208 35.9447 72.952 36.1416 73.118 36.4053C73.2872 36.6657 73.3719 36.9928 73.3719 37.3867V39.8477C73.3719 40.0234 73.3865 40.2106 73.4158 40.4092C73.4484 40.6077 73.4956 40.7786 73.5574 40.9219V41H72.615C72.5695 40.8958 72.5337 40.7575 72.5076 40.585C72.4816 40.4092 72.4686 40.2464 72.4686 40.0967ZM72.6248 37.7969L72.6346 38.4316H71.7215C71.4643 38.4316 71.2348 38.4528 71.033 38.4951C70.8312 38.5342 70.6619 38.5944 70.5252 38.6758C70.3885 38.7572 70.2843 38.8597 70.2127 38.9834C70.1411 39.1038 70.1053 39.2454 70.1053 39.4082C70.1053 39.5742 70.1427 39.7256 70.2176 39.8623C70.2924 39.999 70.4048 40.1081 70.5545 40.1895C70.7075 40.2676 70.8947 40.3066 71.116 40.3066C71.3927 40.3066 71.6368 40.248 71.8484 40.1309C72.06 40.0137 72.2277 39.8704 72.3514 39.7012C72.4783 39.5319 72.5467 39.3675 72.5564 39.208L72.9422 39.6426C72.9194 39.7793 72.8576 39.9307 72.7566 40.0967C72.6557 40.2627 72.5206 40.4222 72.3514 40.5752C72.1854 40.7249 71.9868 40.8503 71.7557 40.9512C71.5278 41.0488 71.2706 41.0977 70.9842 41.0977C70.6261 41.0977 70.312 41.0277 70.0418 40.8877C69.7749 40.7477 69.5665 40.5605 69.4168 40.3262C69.2703 40.0885 69.1971 39.8232 69.1971 39.5303C69.1971 39.2471 69.2524 38.998 69.3631 38.7832C69.4738 38.5651 69.6333 38.3844 69.8416 38.2412C70.0499 38.0947 70.3006 37.984 70.5936 37.9092C70.8865 37.8343 71.2137 37.7969 71.575 37.7969H72.6248ZM75.8742 33.5V41H74.966V33.5H75.8742ZM79.3043 37.6064V38.3486H76.9215V37.6064H79.3043ZM83.0518 33.8906V41H82.124V33.8906H83.0518ZM85.3369 33.8906V34.6621H79.8438V33.8906H85.3369ZM87.3363 35.7168V41H86.4281V35.7168H87.3363ZM86.3598 34.3154C86.3598 34.1689 86.4037 34.0452 86.4916 33.9443C86.5827 33.8434 86.7162 33.793 86.892 33.793C87.0645 33.793 87.1964 33.8434 87.2875 33.9443C87.3819 34.0452 87.4291 34.1689 87.4291 34.3154C87.4291 34.4554 87.3819 34.5758 87.2875 34.6768C87.1964 34.7744 87.0645 34.8232 86.892 34.8232C86.7162 34.8232 86.5827 34.7744 86.4916 34.6768C86.4037 34.5758 86.3598 34.4554 86.3598 34.3154ZM89.785 36.7666V41H88.8768V35.7168H89.7361L89.785 36.7666ZM89.5994 38.1582L89.1795 38.1436C89.1827 37.7822 89.2299 37.4486 89.3211 37.1426C89.4122 36.8333 89.5473 36.5648 89.7264 36.3369C89.9054 36.109 90.1284 35.9333 90.3953 35.8096C90.6622 35.6826 90.9715 35.6191 91.323 35.6191C91.5704 35.6191 91.7983 35.6549 92.0066 35.7266C92.215 35.7949 92.3956 35.904 92.5486 36.0537C92.7016 36.2035 92.8204 36.3955 92.9051 36.6299C92.9897 36.8643 93.032 37.1475 93.032 37.4795V41H92.1287V37.5234C92.1287 37.2467 92.0815 37.0254 91.9871 36.8594C91.896 36.6934 91.7658 36.5729 91.5965 36.498C91.4272 36.4199 91.2286 36.3809 91.0008 36.3809C90.7339 36.3809 90.5109 36.4281 90.3318 36.5225C90.1528 36.6169 90.0096 36.7471 89.9021 36.9131C89.7947 37.0791 89.7166 37.2695 89.6678 37.4844C89.6222 37.696 89.5994 37.9206 89.5994 38.1582ZM93.0223 37.6602L92.4168 37.8457C92.4201 37.556 92.4673 37.2777 92.5584 37.0107C92.6528 36.7438 92.7879 36.5062 92.9637 36.2979C93.1427 36.0895 93.3624 35.9251 93.6229 35.8047C93.8833 35.681 94.1811 35.6191 94.5164 35.6191C94.7996 35.6191 95.0503 35.6566 95.2684 35.7314C95.4897 35.8063 95.6753 35.9219 95.825 36.0781C95.978 36.2311 96.0936 36.4281 96.1717 36.6689C96.2498 36.9098 96.2889 37.1963 96.2889 37.5283V41H95.3807V37.5186C95.3807 37.2223 95.3335 36.9928 95.2391 36.8301C95.1479 36.6641 95.0177 36.5485 94.8484 36.4834C94.6824 36.415 94.4839 36.3809 94.2527 36.3809C94.0542 36.3809 93.8784 36.415 93.7254 36.4834C93.5724 36.5518 93.4438 36.6462 93.3396 36.7666C93.2355 36.8838 93.1557 37.0189 93.1004 37.1719C93.0483 37.3249 93.0223 37.4876 93.0223 37.6602ZM99.9484 41.0977C99.5806 41.0977 99.2469 41.0358 98.9475 40.9121C98.6512 40.7852 98.3957 40.6077 98.1809 40.3799C97.9693 40.152 97.8065 39.8818 97.6926 39.5693C97.5786 39.2568 97.5217 38.915 97.5217 38.5439V38.3389C97.5217 37.9092 97.5852 37.5267 97.7121 37.1914C97.8391 36.8529 98.0116 36.5664 98.2297 36.332C98.4478 36.0977 98.6952 35.9202 98.9719 35.7998C99.2486 35.6794 99.535 35.6191 99.8312 35.6191C100.209 35.6191 100.534 35.6842 100.808 35.8145C101.085 35.9447 101.311 36.127 101.487 36.3613C101.662 36.5924 101.793 36.8659 101.877 37.1816C101.962 37.4941 102.004 37.8359 102.004 38.207V38.6123H98.0588V37.875H101.101V37.8066C101.088 37.5723 101.039 37.3444 100.954 37.123C100.873 36.9017 100.743 36.7194 100.564 36.5762C100.385 36.4329 100.14 36.3613 99.8312 36.3613C99.6262 36.3613 99.4374 36.4053 99.2648 36.4932C99.0923 36.5778 98.9442 36.7048 98.8205 36.874C98.6968 37.0433 98.6008 37.25 98.5324 37.4941C98.4641 37.7383 98.4299 38.0199 98.4299 38.3389V38.5439C98.4299 38.7946 98.4641 39.0306 98.5324 39.252C98.604 39.4701 98.7066 39.6621 98.84 39.8281C98.9768 39.9941 99.1411 40.1243 99.3332 40.2188C99.5285 40.3132 99.7499 40.3604 99.9973 40.3604C100.316 40.3604 100.586 40.2952 100.808 40.165C101.029 40.0348 101.223 39.8607 101.389 39.6426L101.936 40.0771C101.822 40.2497 101.677 40.4141 101.501 40.5703C101.325 40.7266 101.109 40.8535 100.852 40.9512C100.598 41.0488 100.297 41.0977 99.9484 41.0977ZM110.168 38.7393H111.105C111.057 39.1885 110.928 39.5905 110.72 39.9453C110.511 40.3001 110.217 40.5817 109.836 40.79C109.455 40.9951 108.98 41.0977 108.41 41.0977C107.993 41.0977 107.614 41.0195 107.272 40.8633C106.934 40.707 106.643 40.4857 106.398 40.1992C106.154 39.9095 105.965 39.5628 105.832 39.1592C105.702 38.7523 105.637 38.2998 105.637 37.8018V37.0938C105.637 36.5957 105.702 36.1449 105.832 35.7412C105.965 35.3343 106.156 34.986 106.403 34.6963C106.654 34.4066 106.955 34.1836 107.307 34.0273C107.658 33.8711 108.054 33.793 108.493 33.793C109.03 33.793 109.484 33.8939 109.855 34.0957C110.227 34.2975 110.515 34.5775 110.72 34.9355C110.928 35.2904 111.057 35.7021 111.105 36.1709H110.168C110.122 35.8389 110.038 35.554 109.914 35.3164C109.79 35.0755 109.615 34.89 109.387 34.7598C109.159 34.6296 108.861 34.5645 108.493 34.5645C108.177 34.5645 107.899 34.6247 107.658 34.7451C107.421 34.8656 107.22 35.0365 107.058 35.2578C106.898 35.4792 106.778 35.7445 106.696 36.0537C106.615 36.363 106.574 36.7064 106.574 37.084V37.8018C106.574 38.1501 106.61 38.4772 106.682 38.7832C106.757 39.0892 106.869 39.3577 107.019 39.5889C107.168 39.82 107.359 40.0023 107.59 40.1357C107.821 40.266 108.094 40.3311 108.41 40.3311C108.811 40.3311 109.13 40.2676 109.367 40.1406C109.605 40.0137 109.784 39.8314 109.904 39.5938C110.028 39.3561 110.116 39.0713 110.168 38.7393ZM115.585 39.7793V35.7168H116.494V41H115.629L115.585 39.7793ZM115.756 38.666L116.132 38.6562C116.132 39.0078 116.095 39.3333 116.02 39.6328C115.948 39.929 115.831 40.1862 115.668 40.4043C115.506 40.6224 115.292 40.7933 115.029 40.917C114.765 41.0374 114.444 41.0977 114.067 41.0977C113.81 41.0977 113.574 41.0602 113.359 40.9854C113.147 40.9105 112.965 40.7949 112.812 40.6387C112.659 40.4824 112.54 40.279 112.455 40.0283C112.374 39.7777 112.333 39.4766 112.333 39.125V35.7168H113.237V39.1348C113.237 39.3724 113.263 39.5693 113.315 39.7256C113.37 39.8786 113.443 40.0007 113.535 40.0918C113.629 40.1797 113.733 40.2415 113.847 40.2773C113.964 40.3132 114.085 40.3311 114.208 40.3311C114.593 40.3311 114.897 40.2578 115.121 40.1113C115.346 39.9616 115.507 39.7614 115.605 39.5107C115.706 39.2568 115.756 38.9753 115.756 38.666ZM118.874 36.5469V41H117.971V35.7168H118.849L118.874 36.5469ZM120.524 35.6875L120.519 36.5273C120.444 36.5111 120.373 36.5013 120.304 36.498C120.239 36.4915 120.165 36.4883 120.08 36.4883C119.872 36.4883 119.688 36.5208 119.528 36.5859C119.369 36.651 119.234 36.7422 119.123 36.8594C119.012 36.9766 118.924 37.1165 118.859 37.2793C118.797 37.4388 118.757 37.6146 118.737 37.8066L118.483 37.9531C118.483 37.6341 118.514 37.3346 118.576 37.0547C118.641 36.7747 118.74 36.5273 118.874 36.3125C119.007 36.0944 119.177 35.9251 119.382 35.8047C119.59 35.681 119.837 35.6191 120.124 35.6191C120.189 35.6191 120.264 35.6273 120.348 35.6436C120.433 35.6566 120.492 35.6712 120.524 35.6875ZM122.362 36.5469V41H121.459V35.7168H122.338L122.362 36.5469ZM124.013 35.6875L124.008 36.5273C123.933 36.5111 123.862 36.5013 123.793 36.498C123.728 36.4915 123.653 36.4883 123.569 36.4883C123.36 36.4883 123.176 36.5208 123.017 36.5859C122.857 36.651 122.722 36.7422 122.612 36.8594C122.501 36.9766 122.413 37.1165 122.348 37.2793C122.286 37.4388 122.245 37.6146 122.226 37.8066L121.972 37.9531C121.972 37.6341 122.003 37.3346 122.065 37.0547C122.13 36.7747 122.229 36.5273 122.362 36.3125C122.496 36.0944 122.665 35.9251 122.87 35.8047C123.079 35.681 123.326 35.6191 123.612 35.6191C123.678 35.6191 123.752 35.6273 123.837 35.6436C123.922 35.6566 123.98 35.6712 124.013 35.6875ZM127.043 41.0977C126.675 41.0977 126.341 41.0358 126.042 40.9121C125.745 40.7852 125.49 40.6077 125.275 40.3799C125.063 40.152 124.901 39.8818 124.787 39.5693C124.673 39.2568 124.616 38.915 124.616 38.5439V38.3389C124.616 37.9092 124.679 37.5267 124.806 37.1914C124.933 36.8529 125.106 36.5664 125.324 36.332C125.542 36.0977 125.789 35.9202 126.066 35.7998C126.343 35.6794 126.629 35.6191 126.925 35.6191C127.303 35.6191 127.629 35.6842 127.902 35.8145C128.179 35.9447 128.405 36.127 128.581 36.3613C128.756 36.5924 128.887 36.8659 128.971 37.1816C129.056 37.4941 129.098 37.8359 129.098 38.207V38.6123H125.153V37.875H128.195V37.8066C128.182 37.5723 128.133 37.3444 128.048 37.123C127.967 36.9017 127.837 36.7194 127.658 36.5762C127.479 36.4329 127.235 36.3613 126.925 36.3613C126.72 36.3613 126.532 36.4053 126.359 36.4932C126.186 36.5778 126.038 36.7048 125.915 36.874C125.791 37.0433 125.695 37.25 125.627 37.4941C125.558 37.7383 125.524 38.0199 125.524 38.3389V38.5439C125.524 38.7946 125.558 39.0306 125.627 39.252C125.698 39.4701 125.801 39.6621 125.934 39.8281C126.071 39.9941 126.235 40.1243 126.427 40.2188C126.623 40.3132 126.844 40.3604 127.091 40.3604C127.41 40.3604 127.681 40.2952 127.902 40.165C128.123 40.0348 128.317 39.8607 128.483 39.6426L129.03 40.0771C128.916 40.2497 128.771 40.4141 128.595 40.5703C128.42 40.7266 128.203 40.8535 127.946 40.9512C127.692 41.0488 127.391 41.0977 127.043 41.0977ZM131.156 36.8447V41H130.253V35.7168H131.107L131.156 36.8447ZM130.941 38.1582L130.565 38.1436C130.569 37.7822 130.622 37.4486 130.727 37.1426C130.831 36.8333 130.977 36.5648 131.166 36.3369C131.355 36.109 131.579 35.9333 131.84 35.8096C132.104 35.6826 132.395 35.6191 132.714 35.6191C132.974 35.6191 133.209 35.6549 133.417 35.7266C133.625 35.7949 133.803 35.9056 133.949 36.0586C134.099 36.2116 134.213 36.4102 134.291 36.6543C134.369 36.8952 134.408 37.1898 134.408 37.5381V41H133.5V37.5283C133.5 37.2516 133.459 37.0303 133.378 36.8643C133.297 36.695 133.178 36.5729 133.021 36.498C132.865 36.4199 132.673 36.3809 132.445 36.3809C132.221 36.3809 132.016 36.4281 131.83 36.5225C131.648 36.6169 131.49 36.7471 131.356 36.9131C131.226 37.0791 131.124 37.2695 131.049 37.4844C130.977 37.696 130.941 37.9206 130.941 38.1582ZM138.092 35.7168V36.4102H135.236V35.7168H138.092ZM136.203 34.4326H137.106V39.6914C137.106 39.8704 137.134 40.0055 137.189 40.0967C137.244 40.1878 137.316 40.248 137.404 40.2773C137.492 40.3066 137.586 40.3213 137.687 40.3213C137.762 40.3213 137.84 40.3148 137.921 40.3018C138.006 40.2855 138.069 40.2725 138.112 40.2627L138.117 41C138.045 41.0228 137.951 41.0439 137.833 41.0635C137.719 41.0863 137.581 41.0977 137.418 41.0977C137.197 41.0977 136.994 41.0537 136.808 40.9658C136.622 40.8779 136.474 40.7314 136.364 40.5264C136.256 40.318 136.203 40.0381 136.203 39.6865V34.4326Z" fill="#76767A"/>
<path d="M65.6328 24.0225V26H56.8789V24.3125L61.0186 19.874C61.4346 19.4111 61.7627 19.0039 62.0029 18.6523C62.2432 18.2949 62.416 17.9756 62.5215 17.6943C62.6328 17.4072 62.6885 17.1348 62.6885 16.877C62.6885 16.4902 62.624 16.1592 62.4951 15.8838C62.3662 15.6025 62.1758 15.3857 61.9238 15.2334C61.6777 15.0811 61.373 15.0049 61.0098 15.0049C60.623 15.0049 60.2891 15.0986 60.0078 15.2861C59.7324 15.4736 59.5215 15.7344 59.375 16.0684C59.2344 16.4023 59.1641 16.7803 59.1641 17.2021H56.624C56.624 16.4404 56.8057 15.7432 57.1689 15.1104C57.5322 14.4717 58.0449 13.9648 58.707 13.5898C59.3691 13.209 60.1543 13.0186 61.0625 13.0186C61.959 13.0186 62.7148 13.165 63.3301 13.458C63.9512 13.7451 64.4199 14.1611 64.7363 14.7061C65.0586 15.2451 65.2197 15.8896 65.2197 16.6396C65.2197 17.0615 65.1523 17.4746 65.0176 17.8789C64.8828 18.2773 64.6895 18.6758 64.4375 19.0742C64.1914 19.4668 63.8926 19.8652 63.541 20.2695C63.1895 20.6738 62.7998 21.0928 62.3721 21.5264L60.1484 24.0225H65.6328ZM69.5967 20.1729L67.5752 19.6895L68.3047 13.2031H75.4941V15.251H70.3877L70.0713 18.0898C70.2412 17.9902 70.499 17.8848 70.8447 17.7734C71.1904 17.6562 71.5771 17.5977 72.0049 17.5977C72.626 17.5977 73.1768 17.6943 73.6572 17.8877C74.1377 18.0811 74.5449 18.3623 74.8789 18.7314C75.2188 19.1006 75.4766 19.5518 75.6523 20.085C75.8281 20.6182 75.916 21.2217 75.916 21.8955C75.916 22.4639 75.8281 23.0059 75.6523 23.5215C75.4766 24.0312 75.21 24.4883 74.8525 24.8926C74.4951 25.291 74.0469 25.6045 73.5078 25.833C72.9688 26.0615 72.3301 26.1758 71.5918 26.1758C71.041 26.1758 70.5078 26.0938 69.9922 25.9297C69.4824 25.7656 69.0225 25.5225 68.6123 25.2002C68.208 24.8779 67.8828 24.4883 67.6367 24.0312C67.3965 23.5684 67.2705 23.041 67.2588 22.4492H69.7725C69.8076 22.8125 69.9014 23.126 70.0537 23.3896C70.2119 23.6475 70.4199 23.8467 70.6777 23.9873C70.9355 24.1279 71.2373 24.1982 71.583 24.1982C71.9053 24.1982 72.1807 24.1367 72.4092 24.0137C72.6377 23.8906 72.8223 23.7207 72.9629 23.5039C73.1035 23.2812 73.2061 23.0234 73.2705 22.7305C73.3408 22.4316 73.376 22.1094 73.376 21.7637C73.376 21.418 73.335 21.1045 73.2529 20.8232C73.1709 20.542 73.0449 20.2988 72.875 20.0938C72.7051 19.8887 72.4883 19.7305 72.2246 19.6191C71.9668 19.5078 71.665 19.4521 71.3193 19.4521C70.8506 19.4521 70.4873 19.5254 70.2295 19.6719C69.9775 19.8184 69.7666 19.9854 69.5967 20.1729ZM83.7207 13.1768V26H81.1895V16.0947L78.1484 17.0615V15.0664L83.4482 13.1768H83.7207ZM90.4795 18.5029H91.833C92.2666 18.5029 92.624 18.4297 92.9053 18.2832C93.1865 18.1309 93.3945 17.9199 93.5293 17.6504C93.6699 17.375 93.7402 17.0557 93.7402 16.6924C93.7402 16.3643 93.6758 16.0742 93.5469 15.8223C93.4238 15.5645 93.2334 15.3652 92.9756 15.2246C92.7178 15.0781 92.3926 15.0049 92 15.0049C91.6895 15.0049 91.4023 15.0664 91.1387 15.1895C90.875 15.3125 90.6641 15.4854 90.5059 15.708C90.3477 15.9307 90.2686 16.2002 90.2686 16.5166H87.7285C87.7285 15.8135 87.916 15.2012 88.291 14.6797C88.6719 14.1582 89.1816 13.751 89.8203 13.458C90.459 13.165 91.1621 13.0186 91.9297 13.0186C92.7969 13.0186 93.5557 13.1592 94.2061 13.4404C94.8564 13.7158 95.3633 14.123 95.7266 14.6621C96.0898 15.2012 96.2715 15.8691 96.2715 16.666C96.2715 17.0703 96.1777 17.4629 95.9902 17.8438C95.8027 18.2188 95.5332 18.5586 95.1816 18.8633C94.8359 19.1621 94.4141 19.4023 93.916 19.584C93.418 19.7598 92.8584 19.8477 92.2373 19.8477H90.4795V18.5029ZM90.4795 20.4277V19.1182H92.2373C92.9346 19.1182 93.5469 19.1973 94.0742 19.3555C94.6016 19.5137 95.0439 19.7422 95.4014 20.041C95.7588 20.334 96.0283 20.6826 96.21 21.0869C96.3916 21.4854 96.4824 21.9277 96.4824 22.4141C96.4824 23.0117 96.3682 23.5449 96.1396 24.0137C95.9111 24.4766 95.5889 24.8691 95.1729 25.1914C94.7627 25.5137 94.2822 25.7598 93.7314 25.9297C93.1807 26.0938 92.5801 26.1758 91.9297 26.1758C91.3906 26.1758 90.8604 26.1025 90.3389 25.9561C89.8232 25.8037 89.3545 25.5781 88.9326 25.2793C88.5166 24.9746 88.1826 24.5938 87.9307 24.1367C87.6846 23.6738 87.5615 23.126 87.5615 22.4932H90.1016C90.1016 22.8213 90.1836 23.1143 90.3477 23.3721C90.5117 23.6299 90.7373 23.832 91.0244 23.9785C91.3174 24.125 91.6426 24.1982 92 24.1982C92.4043 24.1982 92.75 24.125 93.0371 23.9785C93.3301 23.8262 93.5527 23.6152 93.7051 23.3457C93.8633 23.0703 93.9424 22.751 93.9424 22.3877C93.9424 21.9189 93.8574 21.5439 93.6875 21.2627C93.5176 20.9756 93.2744 20.7646 92.958 20.6299C92.6416 20.4951 92.2666 20.4277 91.833 20.4277H90.4795Z" fill="white"/>
<path d="M101.865 21.8008V26H100.576V20.7168H101.792L101.865 21.8008ZM101.675 23.168H101.279C101.279 22.8001 101.323 22.4616 101.411 22.1523C101.502 21.8431 101.636 21.5745 101.812 21.3467C101.987 21.1156 102.204 20.9365 102.461 20.8096C102.721 20.6826 103.022 20.6191 103.364 20.6191C103.602 20.6191 103.82 20.6549 104.019 20.7266C104.217 20.7949 104.388 20.904 104.531 21.0537C104.678 21.2002 104.79 21.3923 104.868 21.6299C104.946 21.8643 104.985 22.1458 104.985 22.4746V26H103.696V22.6064C103.696 22.359 103.66 22.1654 103.589 22.0254C103.521 21.8854 103.421 21.7878 103.291 21.7324C103.161 21.6738 103.005 21.6445 102.822 21.6445C102.62 21.6445 102.446 21.6852 102.3 21.7666C102.157 21.8447 102.038 21.9538 101.943 22.0938C101.852 22.2337 101.784 22.3949 101.738 22.5771C101.696 22.7594 101.675 22.9564 101.675 23.168ZM104.888 22.9287L104.355 23.0264C104.359 22.6943 104.404 22.3835 104.492 22.0938C104.58 21.8008 104.709 21.5452 104.878 21.3271C105.05 21.1058 105.264 20.9333 105.518 20.8096C105.775 20.6826 106.071 20.6191 106.406 20.6191C106.667 20.6191 106.901 20.6566 107.109 20.7314C107.321 20.8031 107.502 20.9186 107.651 21.0781C107.801 21.2344 107.915 21.4378 107.993 21.6885C108.075 21.9391 108.115 22.2451 108.115 22.6064V26H106.816V22.6016C106.816 22.3444 106.781 22.1475 106.709 22.0107C106.641 21.874 106.541 21.7796 106.411 21.7275C106.281 21.6722 106.128 21.6445 105.952 21.6445C105.773 21.6445 105.617 21.6787 105.483 21.7471C105.353 21.8122 105.243 21.9033 105.151 22.0205C105.063 22.1377 104.997 22.2744 104.951 22.4307C104.909 22.5837 104.888 22.7497 104.888 22.9287ZM112.197 19.9697L110.171 26H108.75L111.406 18.8906H112.314L112.197 19.9697ZM113.892 26L111.855 19.9697L111.733 18.8906H112.646L115.317 26H113.892ZM113.799 23.3584V24.418H109.985V23.3584H113.799Z" fill="white"/>
<defs>
<linearGradient id="paint0_linear_1575_6468" x1="27.5" y1="13.8359" x2="27.5" y2="45.001" gradientUnits="userSpaceOnUse">
<stop stop-color="#339AFF"/>
<stop offset="1" stop-color="#339AFF" stop-opacity="0"/>
</linearGradient>
</defs>
</svg>
