<svg width="316" height="72" viewBox="0 0 316 72" fill="none" xmlns="http://www.w3.org/2000/svg">
<rect width="316" height="72" rx="16" fill="#1A1A1A"/>
<path d="M24 47.5C24 46.1193 25.1193 45 26.5 45H209.5C210.881 45 212 46.1193 212 47.5C212 48.8807 210.881 50 209.5 50H26.5C25.1193 50 24 48.8807 24 47.5Z" fill="#2B2E33"/>
<path d="M24 47.5C24 46.1193 25.1193 45 26.5 45H99.5C100.881 45 102 46.1193 102 47.5C102 48.8807 100.881 50 99.5 50H26.5C25.1193 50 24 48.8807 24 47.5Z" fill="#23C18B"/>
<path d="M31.5371 32.8438C31.5371 32.6445 31.5059 32.4688 31.4434 32.3164C31.3848 32.1602 31.2793 32.0195 31.127 31.8945C30.9785 31.7695 30.7715 31.6504 30.5059 31.5371C30.2441 31.4238 29.9121 31.3086 29.5098 31.1914C29.0879 31.0664 28.707 30.9277 28.3672 30.7754C28.0273 30.6191 27.7363 30.4414 27.4941 30.2422C27.252 30.043 27.0664 29.8145 26.9375 29.5566C26.8086 29.2988 26.7441 29.0039 26.7441 28.6719C26.7441 28.3398 26.8125 28.0332 26.9492 27.752C27.0859 27.4707 27.2812 27.2266 27.5352 27.0195C27.793 26.8086 28.0996 26.6445 28.4551 26.5273C28.8105 26.4102 29.207 26.3516 29.6445 26.3516C30.2852 26.3516 30.8281 26.4746 31.2734 26.7207C31.7227 26.9629 32.0645 27.2812 32.2988 27.6758C32.5332 28.0664 32.6504 28.4844 32.6504 28.9297H31.5254C31.5254 28.6094 31.457 28.3262 31.3203 28.0801C31.1836 27.8301 30.9766 27.6348 30.6992 27.4941C30.4219 27.3496 30.0703 27.2773 29.6445 27.2773C29.2422 27.2773 28.9102 27.3379 28.6484 27.459C28.3867 27.5801 28.1914 27.7441 28.0625 27.9512C27.9375 28.1582 27.875 28.3945 27.875 28.6602C27.875 28.8398 27.9121 29.0039 27.9863 29.1523C28.0645 29.2969 28.1836 29.4316 28.3438 29.5566C28.5078 29.6816 28.7148 29.7969 28.9648 29.9023C29.2188 30.0078 29.5215 30.1094 29.873 30.207C30.3574 30.3438 30.7754 30.4961 31.127 30.6641C31.4785 30.832 31.7676 31.0215 31.9941 31.2324C32.2246 31.4395 32.3945 31.6758 32.5039 31.9414C32.6172 32.2031 32.6738 32.5 32.6738 32.832C32.6738 33.1797 32.6035 33.4941 32.4629 33.7754C32.3223 34.0566 32.1211 34.2969 31.8594 34.4961C31.5977 34.6953 31.2832 34.8496 30.916 34.959C30.5527 35.0645 30.1465 35.1172 29.6973 35.1172C29.3027 35.1172 28.9141 35.0625 28.5312 34.9531C28.1523 34.8438 27.8066 34.6797 27.4941 34.4609C27.1855 34.2422 26.9375 33.9727 26.75 33.6523C26.5664 33.3281 26.4746 32.9531 26.4746 32.5273H27.5996C27.5996 32.8203 27.6562 33.0723 27.7695 33.2832C27.8828 33.4902 28.0371 33.6621 28.2324 33.7988C28.4316 33.9355 28.6562 34.0371 28.9062 34.1035C29.1602 34.166 29.4238 34.1973 29.6973 34.1973C30.0918 34.1973 30.4258 34.1426 30.6992 34.0332C30.9727 33.9238 31.1797 33.7676 31.3203 33.5645C31.4648 33.3613 31.5371 33.1211 31.5371 32.8438ZM36.6055 28.6602V29.4922H33.1777V28.6602H36.6055ZM34.3379 27.1191H35.4219V33.4297C35.4219 33.6445 35.4551 33.8066 35.5215 33.916C35.5879 34.0254 35.6738 34.0977 35.7793 34.1328C35.8848 34.168 35.998 34.1855 36.1191 34.1855C36.209 34.1855 36.3027 34.1777 36.4004 34.1621C36.502 34.1426 36.5781 34.127 36.6289 34.1152L36.6348 35C36.5488 35.0273 36.4355 35.0527 36.2949 35.0762C36.1582 35.1035 35.9922 35.1172 35.7969 35.1172C35.5312 35.1172 35.2871 35.0645 35.0645 34.959C34.8418 34.8535 34.6641 34.6777 34.5312 34.4316C34.4023 34.1816 34.3379 33.8457 34.3379 33.4238V27.1191ZM37.4727 31.9004V31.7656C37.4727 31.3086 37.5391 30.8848 37.6719 30.4941C37.8047 30.0996 37.9961 29.7578 38.2461 29.4688C38.4961 29.1758 38.7988 28.9492 39.1543 28.7891C39.5098 28.625 39.9082 28.543 40.3496 28.543C40.7949 28.543 41.1953 28.625 41.5508 28.7891C41.9102 28.9492 42.2148 29.1758 42.4648 29.4688C42.7188 29.7578 42.9121 30.0996 43.0449 30.4941C43.1777 30.8848 43.2441 31.3086 43.2441 31.7656V31.9004C43.2441 32.3574 43.1777 32.7812 43.0449 33.1719C42.9121 33.5625 42.7188 33.9043 42.4648 34.1973C42.2148 34.4863 41.9121 34.7129 41.5566 34.877C41.2051 35.0371 40.8066 35.1172 40.3613 35.1172C39.916 35.1172 39.5156 35.0371 39.1602 34.877C38.8047 34.7129 38.5 34.4863 38.2461 34.1973C37.9961 33.9043 37.8047 33.5625 37.6719 33.1719C37.5391 32.7812 37.4727 32.3574 37.4727 31.9004ZM38.5566 31.7656V31.9004C38.5566 32.2168 38.5938 32.5156 38.668 32.7969C38.7422 33.0742 38.8535 33.3203 39.002 33.5352C39.1543 33.75 39.3438 33.9199 39.5703 34.0449C39.7969 34.166 40.0605 34.2266 40.3613 34.2266C40.6582 34.2266 40.918 34.166 41.1406 34.0449C41.3672 33.9199 41.5547 33.75 41.7031 33.5352C41.8516 33.3203 41.9629 33.0742 42.0371 32.7969C42.1152 32.5156 42.1543 32.2168 42.1543 31.9004V31.7656C42.1543 31.4531 42.1152 31.1582 42.0371 30.8809C41.9629 30.5996 41.8496 30.3516 41.6973 30.1367C41.5488 29.918 41.3613 29.7461 41.1348 29.6211C40.9121 29.4961 40.6504 29.4336 40.3496 29.4336C40.0527 29.4336 39.791 29.4961 39.5645 29.6211C39.3418 29.7461 39.1543 29.918 39.002 30.1367C38.8535 30.3516 38.7422 30.5996 38.668 30.8809C38.5938 31.1582 38.5566 31.4531 38.5566 31.7656ZM45.6875 29.6562V35H44.6035V28.6602H45.6582L45.6875 29.6562ZM47.668 28.625L47.6621 29.6328C47.5723 29.6133 47.4863 29.6016 47.4043 29.5977C47.3262 29.5898 47.2363 29.5859 47.1348 29.5859C46.8848 29.5859 46.6641 29.625 46.4727 29.7031C46.2812 29.7812 46.1191 29.8906 45.9863 30.0312C45.8535 30.1719 45.748 30.3398 45.6699 30.5352C45.5957 30.7266 45.5469 30.9375 45.5234 31.168L45.2188 31.3438C45.2188 30.9609 45.2559 30.6016 45.3301 30.2656C45.4082 29.9297 45.5273 29.6328 45.6875 29.375C45.8477 29.1133 46.0508 28.9102 46.2969 28.7656C46.5469 28.6172 46.8438 28.543 47.1875 28.543C47.2656 28.543 47.3555 28.5527 47.457 28.5723C47.5586 28.5879 47.6289 28.6055 47.668 28.625ZM52.1738 33.916V30.6523C52.1738 30.4023 52.123 30.1855 52.0215 30.002C51.9238 29.8145 51.7754 29.6699 51.5762 29.5684C51.377 29.4668 51.1309 29.416 50.8379 29.416C50.5645 29.416 50.3242 29.4629 50.1172 29.5566C49.9141 29.6504 49.7539 29.7734 49.6367 29.9258C49.5234 30.0781 49.4668 30.2422 49.4668 30.418H48.3828C48.3828 30.1914 48.4414 29.9668 48.5586 29.7441C48.6758 29.5215 48.8438 29.3203 49.0625 29.1406C49.2852 28.957 49.5508 28.8125 49.8594 28.707C50.1719 28.5977 50.5195 28.543 50.9023 28.543C51.3633 28.543 51.7695 28.6211 52.1211 28.7773C52.4766 28.9336 52.7539 29.1699 52.9531 29.4863C53.1562 29.7988 53.2578 30.1914 53.2578 30.6641V33.6172C53.2578 33.8281 53.2754 34.0527 53.3105 34.291C53.3496 34.5293 53.4062 34.7344 53.4805 34.9062V35H52.3496C52.2949 34.875 52.252 34.709 52.2207 34.502C52.1895 34.291 52.1738 34.0957 52.1738 33.916ZM52.3613 31.1562L52.373 31.918H51.2773C50.9688 31.918 50.6934 31.9434 50.4512 31.9941C50.209 32.041 50.0059 32.1133 49.8418 32.2109C49.6777 32.3086 49.5527 32.4316 49.4668 32.5801C49.3809 32.7246 49.3379 32.8945 49.3379 33.0898C49.3379 33.2891 49.3828 33.4707 49.4727 33.6348C49.5625 33.7988 49.6973 33.9297 49.877 34.0273C50.0605 34.1211 50.2852 34.168 50.5508 34.168C50.8828 34.168 51.1758 34.0977 51.4297 33.957C51.6836 33.8164 51.8848 33.6445 52.0332 33.4414C52.1855 33.2383 52.2676 33.041 52.2793 32.8496L52.7422 33.3711C52.7148 33.5352 52.6406 33.7168 52.5195 33.916C52.3984 34.1152 52.2363 34.3066 52.0332 34.4902C51.834 34.6699 51.5957 34.8203 51.3184 34.9414C51.0449 35.0586 50.7363 35.1172 50.3926 35.1172C49.9629 35.1172 49.5859 35.0332 49.2617 34.8652C48.9414 34.6973 48.6914 34.4727 48.5117 34.1914C48.3359 33.9062 48.248 33.5879 48.248 33.2363C48.248 32.8965 48.3145 32.5977 48.4473 32.3398C48.5801 32.0781 48.7715 31.8613 49.0215 31.6895C49.2715 31.5137 49.5723 31.3809 49.9238 31.291C50.2754 31.2012 50.668 31.1562 51.1016 31.1562H52.3613ZM59.0703 28.6602H60.0547V34.8652C60.0547 35.4238 59.9414 35.9004 59.7148 36.2949C59.4883 36.6895 59.1719 36.9883 58.7656 37.1914C58.3633 37.3984 57.8984 37.502 57.3711 37.502C57.1523 37.502 56.8945 37.4668 56.5977 37.3965C56.3047 37.3301 56.0156 37.2148 55.7305 37.0508C55.4492 36.8906 55.2129 36.6738 55.0215 36.4004L55.5898 35.7559C55.8555 36.0762 56.1328 36.2988 56.4219 36.4238C56.7148 36.5488 57.0039 36.6113 57.2891 36.6113C57.6328 36.6113 57.9297 36.5469 58.1797 36.418C58.4297 36.2891 58.623 36.0977 58.7598 35.8438C58.9004 35.5938 58.9707 35.2852 58.9707 34.918V30.0547L59.0703 28.6602ZM54.7051 31.9004V31.7773C54.7051 31.293 54.7617 30.8535 54.875 30.459C54.9922 30.0605 55.1582 29.7188 55.373 29.4336C55.5918 29.1484 55.8555 28.9297 56.1641 28.7773C56.4727 28.6211 56.8203 28.543 57.207 28.543C57.6055 28.543 57.9531 28.6133 58.25 28.7539C58.5508 28.8906 58.8047 29.0918 59.0117 29.3574C59.2227 29.6191 59.3887 29.9355 59.5098 30.3066C59.6309 30.6777 59.7148 31.0977 59.7617 31.5664V32.1055C59.7188 32.5703 59.6348 32.9883 59.5098 33.3594C59.3887 33.7305 59.2227 34.0469 59.0117 34.3086C58.8047 34.5703 58.5508 34.7715 58.25 34.9121C57.9492 35.0488 57.5977 35.1172 57.1953 35.1172C56.8164 35.1172 56.4727 35.0371 56.1641 34.877C55.8594 34.7168 55.5977 34.4922 55.3789 34.2031C55.1602 33.9141 54.9922 33.5742 54.875 33.1836C54.7617 32.7891 54.7051 32.3613 54.7051 31.9004ZM55.7891 31.7773V31.9004C55.7891 32.2168 55.8203 32.5137 55.8828 32.791C55.9492 33.0684 56.0488 33.3125 56.1816 33.5234C56.3184 33.7344 56.4922 33.9004 56.7031 34.0215C56.9141 34.1387 57.166 34.1973 57.459 34.1973C57.8184 34.1973 58.1152 34.1211 58.3496 33.9688C58.584 33.8164 58.7695 33.6152 58.9062 33.3652C59.0469 33.1152 59.1562 32.8438 59.2344 32.5508V31.1387C59.1914 30.9238 59.125 30.7168 59.0352 30.5176C58.9492 30.3145 58.8359 30.1348 58.6953 29.9785C58.5586 29.8184 58.3887 29.6914 58.1855 29.5977C57.9824 29.5039 57.7441 29.457 57.4707 29.457C57.1738 29.457 56.918 29.5195 56.7031 29.6445C56.4922 29.7656 56.3184 29.9336 56.1816 30.1484C56.0488 30.3594 55.9492 30.6055 55.8828 30.8867C55.8203 31.1641 55.7891 31.4609 55.7891 31.7773ZM64.332 35.1172C63.8906 35.1172 63.4902 35.043 63.1309 34.8945C62.7754 34.7422 62.4688 34.5293 62.2109 34.2559C61.957 33.9824 61.7617 33.6582 61.625 33.2832C61.4883 32.9082 61.4199 32.498 61.4199 32.0527V31.8066C61.4199 31.291 61.4961 30.832 61.6484 30.4297C61.8008 30.0234 62.0078 29.6797 62.2695 29.3984C62.5312 29.1172 62.8281 28.9043 63.1602 28.7598C63.4922 28.6152 63.8359 28.543 64.1914 28.543C64.6445 28.543 65.0352 28.6211 65.3633 28.7773C65.6953 28.9336 65.9668 29.1523 66.1777 29.4336C66.3887 29.7109 66.5449 30.0391 66.6465 30.418C66.748 30.793 66.7988 31.2031 66.7988 31.6484V32.1348H62.0645V31.25H65.7148V31.168C65.6992 30.8867 65.6406 30.6133 65.5391 30.3477C65.4414 30.082 65.2852 29.8633 65.0703 29.6914C64.8555 29.5195 64.5625 29.4336 64.1914 29.4336C63.9453 29.4336 63.7188 29.4863 63.5117 29.5918C63.3047 29.6934 63.127 29.8457 62.9785 30.0488C62.8301 30.252 62.7148 30.5 62.6328 30.793C62.5508 31.0859 62.5098 31.4238 62.5098 31.8066V32.0527C62.5098 32.3535 62.5508 32.6367 62.6328 32.9023C62.7188 33.1641 62.8418 33.3945 63.002 33.5938C63.166 33.793 63.3633 33.9492 63.5938 34.0625C63.8281 34.1758 64.0938 34.2324 64.3906 34.2324C64.7734 34.2324 65.0977 34.1543 65.3633 33.998C65.6289 33.8418 65.8613 33.6328 66.0605 33.3711L66.7168 33.8926C66.5801 34.0996 66.4062 34.2969 66.1953 34.4844C65.9844 34.6719 65.7246 34.8242 65.416 34.9414C65.1113 35.0586 64.75 35.1172 64.332 35.1172ZM76.0859 26.4688H77.2109V32.2402C77.2109 32.8809 77.0684 33.4141 76.7832 33.8398C76.498 34.2656 76.1191 34.5859 75.6465 34.8008C75.1777 35.0117 74.668 35.1172 74.1172 35.1172C73.5391 35.1172 73.0156 35.0117 72.5469 34.8008C72.082 34.5859 71.7129 34.2656 71.4395 33.8398C71.1699 33.4141 71.0352 32.8809 71.0352 32.2402V26.4688H72.1543V32.2402C72.1543 32.6855 72.2363 33.0527 72.4004 33.3418C72.5645 33.6309 72.793 33.8457 73.0859 33.9863C73.3828 34.127 73.7266 34.1973 74.1172 34.1973C74.5117 34.1973 74.8555 34.127 75.1484 33.9863C75.4453 33.8457 75.6758 33.6309 75.8398 33.3418C76.0039 33.0527 76.0859 32.6855 76.0859 32.2402V26.4688ZM82.5137 33.3184C82.5137 33.1621 82.4785 33.0176 82.4082 32.8848C82.3418 32.748 82.2031 32.625 81.9922 32.5156C81.7852 32.4023 81.4727 32.3047 81.0547 32.2227C80.7031 32.1484 80.3848 32.0605 80.0996 31.959C79.8184 31.8574 79.5781 31.7344 79.3789 31.5898C79.1836 31.4453 79.0332 31.2754 78.9277 31.0801C78.8223 30.8848 78.7695 30.6562 78.7695 30.3945C78.7695 30.1445 78.8242 29.9082 78.9336 29.6855C79.0469 29.4629 79.2051 29.2656 79.4082 29.0938C79.6152 28.9219 79.8633 28.7871 80.1523 28.6895C80.4414 28.5918 80.7637 28.543 81.1191 28.543C81.627 28.543 82.0605 28.6328 82.4199 28.8125C82.7793 28.9922 83.0547 29.2324 83.2461 29.5332C83.4375 29.8301 83.5332 30.1602 83.5332 30.5234H82.4492C82.4492 30.3477 82.3965 30.1777 82.291 30.0137C82.1895 29.8457 82.0391 29.707 81.8398 29.5977C81.6445 29.4883 81.4043 29.4336 81.1191 29.4336C80.8184 29.4336 80.5742 29.4805 80.3867 29.5742C80.2031 29.6641 80.0684 29.7793 79.9824 29.9199C79.9004 30.0605 79.8594 30.209 79.8594 30.3652C79.8594 30.4824 79.8789 30.5879 79.918 30.6816C79.9609 30.7715 80.0352 30.8555 80.1406 30.9336C80.2461 31.0078 80.3945 31.0781 80.5859 31.1445C80.7773 31.2109 81.0215 31.2773 81.3184 31.3438C81.8379 31.4609 82.2656 31.6016 82.6016 31.7656C82.9375 31.9297 83.1875 32.1309 83.3516 32.3691C83.5156 32.6074 83.5977 32.8965 83.5977 33.2363C83.5977 33.5137 83.5391 33.7676 83.4219 33.998C83.3086 34.2285 83.1426 34.4277 82.9238 34.5957C82.709 34.7598 82.4512 34.8887 82.1504 34.9824C81.8535 35.0723 81.5195 35.1172 81.1484 35.1172C80.5898 35.1172 80.1172 35.0176 79.7305 34.8184C79.3438 34.6191 79.0508 34.3613 78.8516 34.0449C78.6523 33.7285 78.5527 33.3945 78.5527 33.043H79.6426C79.6582 33.3398 79.7441 33.5762 79.9004 33.752C80.0566 33.9238 80.248 34.0469 80.4746 34.1211C80.7012 34.1914 80.9258 34.2266 81.1484 34.2266C81.4453 34.2266 81.6934 34.1875 81.8926 34.1094C82.0957 34.0312 82.25 33.9238 82.3555 33.7871C82.4609 33.6504 82.5137 33.4941 82.5137 33.3184ZM87.6523 35.1172C87.2109 35.1172 86.8105 35.043 86.4512 34.8945C86.0957 34.7422 85.7891 34.5293 85.5312 34.2559C85.2773 33.9824 85.082 33.6582 84.9453 33.2832C84.8086 32.9082 84.7402 32.498 84.7402 32.0527V31.8066C84.7402 31.291 84.8164 30.832 84.9688 30.4297C85.1211 30.0234 85.3281 29.6797 85.5898 29.3984C85.8516 29.1172 86.1484 28.9043 86.4805 28.7598C86.8125 28.6152 87.1562 28.543 87.5117 28.543C87.9648 28.543 88.3555 28.6211 88.6836 28.7773C89.0156 28.9336 89.2871 29.1523 89.498 29.4336C89.709 29.7109 89.8652 30.0391 89.9668 30.418C90.0684 30.793 90.1191 31.2031 90.1191 31.6484V32.1348H85.3848V31.25H89.0352V31.168C89.0195 30.8867 88.9609 30.6133 88.8594 30.3477C88.7617 30.082 88.6055 29.8633 88.3906 29.6914C88.1758 29.5195 87.8828 29.4336 87.5117 29.4336C87.2656 29.4336 87.0391 29.4863 86.832 29.5918C86.625 29.6934 86.4473 29.8457 86.2988 30.0488C86.1504 30.252 86.0352 30.5 85.9531 30.793C85.8711 31.0859 85.8301 31.4238 85.8301 31.8066V32.0527C85.8301 32.3535 85.8711 32.6367 85.9531 32.9023C86.0391 33.1641 86.1621 33.3945 86.3223 33.5938C86.4863 33.793 86.6836 33.9492 86.9141 34.0625C87.1484 34.1758 87.4141 34.2324 87.7109 34.2324C88.0938 34.2324 88.418 34.1543 88.6836 33.998C88.9492 33.8418 89.1816 33.6328 89.3809 33.3711L90.0371 33.8926C89.9004 34.0996 89.7266 34.2969 89.5156 34.4844C89.3047 34.6719 89.0449 34.8242 88.7363 34.9414C88.4316 35.0586 88.0703 35.1172 87.6523 35.1172ZM95.3809 33.7695V26H96.4707V35H95.4746L95.3809 33.7695ZM91.1152 31.9004V31.7773C91.1152 31.293 91.1738 30.8535 91.291 30.459C91.4121 30.0605 91.582 29.7188 91.8008 29.4336C92.0234 29.1484 92.2871 28.9297 92.5918 28.7773C92.9004 28.6211 93.2441 28.543 93.623 28.543C94.0215 28.543 94.3691 28.6133 94.666 28.7539C94.9668 28.8906 95.2207 29.0918 95.4277 29.3574C95.6387 29.6191 95.8047 29.9355 95.9258 30.3066C96.0469 30.6777 96.1309 31.0977 96.1777 31.5664V32.1055C96.1348 32.5703 96.0508 32.9883 95.9258 33.3594C95.8047 33.7305 95.6387 34.0469 95.4277 34.3086C95.2207 34.5703 94.9668 34.7715 94.666 34.9121C94.3652 35.0488 94.0137 35.1172 93.6113 35.1172C93.2402 35.1172 92.9004 35.0371 92.5918 34.877C92.2871 34.7168 92.0234 34.4922 91.8008 34.2031C91.582 33.9141 91.4121 33.5742 91.291 33.1836C91.1738 32.7891 91.1152 32.3613 91.1152 31.9004ZM92.2051 31.7773V31.9004C92.2051 32.2168 92.2363 32.5137 92.2988 32.791C92.3652 33.0684 92.4668 33.3125 92.6035 33.5234C92.7402 33.7344 92.9141 33.9004 93.125 34.0215C93.3359 34.1387 93.5879 34.1973 93.8809 34.1973C94.2402 34.1973 94.5352 34.1211 94.7656 33.9688C95 33.8164 95.1875 33.6152 95.3281 33.3652C95.4688 33.1152 95.5781 32.8438 95.6562 32.5508V31.1387C95.6094 30.9238 95.541 30.7168 95.4512 30.5176C95.3652 30.3145 95.252 30.1348 95.1113 29.9785C94.9746 29.8184 94.8047 29.6914 94.6016 29.5977C94.4023 29.5039 94.166 29.457 93.8926 29.457C93.5957 29.457 93.3398 29.5195 93.125 29.6445C92.9141 29.7656 92.7402 29.9336 92.6035 30.1484C92.4668 30.3594 92.3652 30.6055 92.2988 30.8867C92.2363 31.1641 92.2051 31.4609 92.2051 31.7773Z" fill="white"/>
<path d="M161.266 23.6016V35H159.016V26.1953L156.312 27.0547V25.2812L161.023 23.6016H161.266ZM172.75 33.2422V35H164.969V33.5L168.648 29.5547C169.018 29.1432 169.31 28.7812 169.523 28.4688C169.737 28.151 169.891 27.8672 169.984 27.6172C170.083 27.362 170.133 27.1198 170.133 26.8906C170.133 26.5469 170.076 26.2526 169.961 26.0078C169.846 25.7578 169.677 25.5651 169.453 25.4297C169.234 25.2943 168.964 25.2266 168.641 25.2266C168.297 25.2266 168 25.3099 167.75 25.4766C167.505 25.6432 167.318 25.875 167.188 26.1719C167.062 26.4688 167 26.8047 167 27.1797H164.742C164.742 26.5026 164.904 25.8828 165.227 25.3203C165.549 24.7526 166.005 24.3021 166.594 23.9688C167.182 23.6302 167.88 23.4609 168.688 23.4609C169.484 23.4609 170.156 23.5911 170.703 23.8516C171.255 24.1068 171.672 24.4766 171.953 24.9609C172.24 25.4401 172.383 26.013 172.383 26.6797C172.383 27.0547 172.323 27.4219 172.203 27.7812C172.083 28.1354 171.911 28.4896 171.688 28.8438C171.469 29.1927 171.203 29.5469 170.891 29.9062C170.578 30.2656 170.232 30.638 169.852 31.0234L167.875 33.2422H172.75ZM183.406 29.0547V33.5625C183.229 33.776 182.956 34.0078 182.586 34.2578C182.216 34.5026 181.74 34.7135 181.156 34.8906C180.573 35.0677 179.867 35.1562 179.039 35.1562C178.305 35.1562 177.635 35.0365 177.031 34.7969C176.427 34.5521 175.906 34.1953 175.469 33.7266C175.036 33.2578 174.703 32.6849 174.469 32.0078C174.234 31.3255 174.117 30.5469 174.117 29.6719V28.9609C174.117 28.0859 174.229 27.3073 174.453 26.625C174.682 25.9427 175.008 25.3672 175.43 24.8984C175.852 24.4297 176.354 24.0729 176.938 23.8281C177.521 23.5833 178.169 23.4609 178.883 23.4609C179.872 23.4609 180.685 23.6224 181.32 23.9453C181.956 24.263 182.44 24.7057 182.773 25.2734C183.112 25.8359 183.32 26.4818 183.398 27.2109H181.125C181.068 26.8255 180.958 26.4896 180.797 26.2031C180.635 25.9167 180.404 25.6927 180.102 25.5312C179.805 25.3698 179.419 25.2891 178.945 25.2891C178.555 25.2891 178.206 25.3698 177.898 25.5312C177.596 25.6875 177.341 25.9193 177.133 26.2266C176.924 26.5339 176.766 26.9141 176.656 27.3672C176.547 27.8203 176.492 28.3464 176.492 28.9453V29.6719C176.492 30.2656 176.549 30.7917 176.664 31.25C176.779 31.7031 176.948 32.0859 177.172 32.3984C177.401 32.7057 177.682 32.9375 178.016 33.0938C178.349 33.25 178.737 33.3281 179.18 33.3281C179.549 33.3281 179.857 33.2969 180.102 33.2344C180.352 33.1719 180.552 33.0964 180.703 33.0078C180.859 32.9141 180.979 32.8255 181.062 32.7422V30.7266H178.922V29.0547H183.406Z" fill="white"/>
<path d="M189.6 26.4688L186.043 35.7324H185.111L188.674 26.4688H189.6ZM194.826 26.457H194.92V27.377H194.826C194.252 27.377 193.771 27.4707 193.385 27.6582C192.998 27.8418 192.691 28.0898 192.465 28.4023C192.238 28.7109 192.074 29.0586 191.973 29.4453C191.875 29.832 191.826 30.2246 191.826 30.623V31.877C191.826 32.2559 191.871 32.5918 191.961 32.8848C192.051 33.1738 192.174 33.418 192.33 33.6172C192.486 33.8164 192.662 33.9668 192.857 34.0684C193.057 34.1699 193.264 34.2207 193.479 34.2207C193.729 34.2207 193.951 34.1738 194.146 34.0801C194.342 33.9824 194.506 33.8477 194.639 33.6758C194.775 33.5 194.879 33.293 194.949 33.0547C195.02 32.8164 195.055 32.5547 195.055 32.2695C195.055 32.0156 195.023 31.7715 194.961 31.5371C194.898 31.2988 194.803 31.0879 194.674 30.9043C194.545 30.7168 194.383 30.5703 194.188 30.4648C193.996 30.3555 193.768 30.3008 193.502 30.3008C193.201 30.3008 192.92 30.375 192.658 30.5234C192.4 30.668 192.188 30.8594 192.02 31.0977C191.855 31.332 191.762 31.5879 191.738 31.8652L191.164 31.8594C191.219 31.4219 191.32 31.0488 191.469 30.7402C191.621 30.4277 191.809 30.1738 192.031 29.9785C192.258 29.7793 192.51 29.6348 192.787 29.5449C193.068 29.4512 193.365 29.4043 193.678 29.4043C194.104 29.4043 194.471 29.4844 194.779 29.6445C195.088 29.8047 195.342 30.0195 195.541 30.2891C195.74 30.5547 195.887 30.8555 195.98 31.1914C196.078 31.5234 196.127 31.8652 196.127 32.2168C196.127 32.6191 196.07 32.9961 195.957 33.3477C195.844 33.6992 195.674 34.0078 195.447 34.2734C195.225 34.5391 194.949 34.7461 194.621 34.8945C194.293 35.043 193.912 35.1172 193.479 35.1172C193.018 35.1172 192.615 35.0234 192.271 34.8359C191.928 34.6445 191.643 34.3906 191.416 34.0742C191.189 33.7578 191.02 33.4062 190.906 33.0195C190.793 32.6328 190.736 32.2402 190.736 31.8418V31.332C190.736 30.7305 190.797 30.1406 190.918 29.5625C191.039 28.9844 191.248 28.4609 191.545 27.9922C191.846 27.5234 192.262 27.1504 192.793 26.873C193.324 26.5957 194.002 26.457 194.826 26.457ZM203.182 32.1289V33.0195H197.018V32.3809L200.838 26.4688H201.723L200.773 28.1797L198.248 32.1289H203.182ZM201.992 26.4688V35H200.908V26.4688H201.992ZM210.752 30.752V33.875C210.646 34.0312 210.479 34.207 210.248 34.4023C210.018 34.5938 209.699 34.7617 209.293 34.9062C208.891 35.0469 208.371 35.1172 207.734 35.1172C207.215 35.1172 206.736 35.0273 206.299 34.8477C205.865 34.6641 205.488 34.3984 205.168 34.0508C204.852 33.6992 204.605 33.2734 204.43 32.7734C204.258 32.2695 204.172 31.6992 204.172 31.0625V30.4004C204.172 29.7637 204.246 29.1953 204.395 28.6953C204.547 28.1953 204.77 27.7715 205.062 27.4238C205.355 27.0723 205.715 26.8066 206.141 26.627C206.566 26.4434 207.055 26.3516 207.605 26.3516C208.258 26.3516 208.803 26.4648 209.24 26.6914C209.682 26.9141 210.025 27.2227 210.271 27.6172C210.521 28.0117 210.682 28.4609 210.752 28.9648H209.621C209.57 28.6562 209.469 28.375 209.316 28.1211C209.168 27.8672 208.955 27.6641 208.678 27.5117C208.4 27.3555 208.043 27.2773 207.605 27.2773C207.211 27.2773 206.869 27.3496 206.58 27.4941C206.291 27.6387 206.053 27.8457 205.865 28.1152C205.678 28.3848 205.537 28.7109 205.443 29.0938C205.354 29.4766 205.309 29.9082 205.309 30.3887V31.0625C205.309 31.5547 205.365 31.9941 205.479 32.3809C205.596 32.7676 205.762 33.0977 205.977 33.3711C206.191 33.6406 206.447 33.8457 206.744 33.9863C207.045 34.127 207.377 34.1973 207.74 34.1973C208.143 34.1973 208.469 34.1641 208.719 34.0977C208.969 34.0273 209.164 33.9453 209.305 33.8516C209.445 33.7539 209.553 33.6621 209.627 33.5762V31.666H207.652V30.752H210.752Z" fill="#76767A"/>
<rect x="228" y="22" width="72" height="28" rx="4" fill="white"/>
<path d="M250.707 37.1699H252.459C252.424 37.7441 252.266 38.2539 251.984 38.6992C251.707 39.1445 251.318 39.4922 250.818 39.7422C250.322 39.9922 249.725 40.1172 249.025 40.1172C248.479 40.1172 247.988 40.0234 247.555 39.8359C247.121 39.6445 246.75 39.3711 246.441 39.0156C246.137 38.6602 245.904 38.2305 245.744 37.7266C245.584 37.2227 245.504 36.6582 245.504 36.0332V35.4414C245.504 34.8164 245.586 34.252 245.75 33.748C245.918 33.2402 246.156 32.8086 246.465 32.4531C246.777 32.0977 247.15 31.8242 247.584 31.6328C248.018 31.4414 248.502 31.3457 249.037 31.3457C249.748 31.3457 250.348 31.4746 250.836 31.7324C251.328 31.9902 251.709 32.3457 251.979 32.7988C252.252 33.252 252.416 33.7676 252.471 34.3457H250.713C250.693 34.002 250.625 33.7109 250.508 33.4727C250.391 33.2305 250.213 33.0488 249.975 32.9277C249.74 32.8027 249.428 32.7402 249.037 32.7402C248.744 32.7402 248.488 32.7949 248.27 32.9043C248.051 33.0137 247.867 33.1797 247.719 33.4023C247.57 33.625 247.459 33.9062 247.385 34.2461C247.314 34.582 247.279 34.9766 247.279 35.4297V36.0332C247.279 36.4746 247.312 36.8633 247.379 37.1992C247.445 37.5312 247.547 37.8125 247.684 38.043C247.824 38.2695 248.004 38.4414 248.223 38.5586C248.445 38.6719 248.713 38.7285 249.025 38.7285C249.393 38.7285 249.695 38.6699 249.934 38.5527C250.172 38.4355 250.354 38.2617 250.479 38.0312C250.607 37.8008 250.684 37.5137 250.707 37.1699ZM259.098 38.6289V40H254.803V38.6289H259.098ZM255.371 31.4688V40H253.613V31.4688H255.371ZM265.83 38.6289V40H261.289V38.6289H265.83ZM261.863 31.4688V40H260.105V31.4688H261.863ZM265.238 34.9434V36.2793H261.289V34.9434H265.238ZM265.824 31.4688V32.8457H261.289V31.4688H265.824ZM270.324 32.9277L268.004 40H266.135L269.305 31.4688H270.494L270.324 32.9277ZM272.252 40L269.926 32.9277L269.738 31.4688H270.939L274.127 40H272.252ZM272.146 36.8242V38.2012H267.641V36.8242H272.146ZM281.861 31.4688V40H280.104L276.676 34.2812V40H274.918V31.4688H276.676L280.109 37.1934V31.4688H281.861Z" fill="#339AFF"/>
</svg>
